<svg xmlns="http://www.w3.org/2000/svg" xmlns:xlink="http://www.w3.org/1999/xlink" width="40" zoomAndPan="magnify" viewBox="0 0 30 30.000001" height="40" preserveAspectRatio="xMidYMid meet" version="1.0"><defs><clipPath id="429bb19aac"><path d="M 0.484375 0 L 29.515625 0 L 29.515625 29.03125 L 0.484375 29.03125 Z M 0.484375 0 " clip-rule="nonzero"/></clipPath></defs><g clip-path="url(#429bb19aac)"><path fill="#ffffff" d="M 14.820312 0 C 6.871094 0 0.484375 6.4375 0.484375 14.457031 C 0.484375 20.40625 3.976562 25.386719 9.039062 27.695312 C 9.039062 24.984375 9.019531 25.335938 11.085938 16.519531 C 9.949219 14.230469 10.832031 10.445312 13.375 10.445312 C 16.902344 10.445312 14.503906 15.675781 14.097656 17.734375 C 13.734375 19.316406 14.941406 20.527344 16.386719 20.527344 C 19.15625 20.527344 20.964844 17.007812 20.964844 12.875 C 20.964844 9.71875 18.796875 7.410156 15.0625 7.410156 C 8.421875 7.410156 6.734375 14.804688 9.039062 17.128906 C 9.617188 18.003906 9.039062 18.046875 9.039062 19.191406 C 8.636719 20.40625 5.425781 18.644531 5.425781 14.089844 C 5.425781 9.960938 8.796875 5.101562 15.664062 5.101562 C 21.085938 5.101562 24.699219 9.109375 24.699219 13.363281 C 24.699219 19.070312 21.566406 23.203125 16.988281 23.203125 C 15.421875 23.203125 13.976562 22.351562 13.496094 21.378906 C 12.621094 24.785156 12.441406 26.511719 11.085938 28.425781 C 12.410156 28.789062 13.734375 29.03125 15.183594 29.03125 C 23.132812 29.03125 29.515625 22.59375 29.515625 14.578125 C 29.15625 6.4375 22.769531 0 14.820312 0 " fill-opacity="1" fill-rule="evenodd"/></g></svg>