<svg xmlns="http://www.w3.org/2000/svg" xmlns:xlink="http://www.w3.org/1999/xlink" width="2040" zoomAndPan="magnify" viewBox="0 0 1530 1529.999932" height="2040" preserveAspectRatio="xMidYMid meet" version="1.0"><defs><g/><clipPath id="b077829bbc"><path d="M 305 660 L 744 660 L 744 1211 L 305 1211 Z M 305 660 " clip-rule="nonzero"/></clipPath><clipPath id="683ce5d28a"><path d="M 743.753906 747.144531 L 436.707031 1210.375 L 305.425781 1123.355469 L 612.472656 660.128906 Z M 743.753906 747.144531 " clip-rule="nonzero"/></clipPath><clipPath id="735fbf52bc"><path d="M 3 49 L 387 49 L 387 502 L 3 502 Z M 3 49 " clip-rule="nonzero"/></clipPath><clipPath id="ecf89a461f"><path d="M 438.753906 87.144531 L 131.707031 550.375 L 0.425781 463.355469 L 307.472656 0.128906 Z M 438.753906 87.144531 " clip-rule="nonzero"/></clipPath><clipPath id="27bcfc8907"><path d="M 307.277344 0 L 0.230469 463.226562 L 131.511719 550.246094 L 438.558594 87.015625 Z M 307.277344 0 " clip-rule="nonzero"/></clipPath><clipPath id="1d4a82b8c3"><rect x="0" width="439" y="0" height="551"/></clipPath><clipPath id="326ed5c247"><rect x="0" width="706" y="0" height="415"/></clipPath></defs><g clip-path="url(#b077829bbc)"><g clip-path="url(#683ce5d28a)"><g transform="matrix(1, 0, 0, 1, 305, 660)"><g clip-path="url(#1d4a82b8c3)"><g clip-path="url(#735fbf52bc)"><g clip-path="url(#ecf89a461f)"><g clip-path="url(#27bcfc8907)"><path fill="#5e253a" d="M 7.816406 467.476562 L 155.59375 501.351562 C 158 501.871094 160.371094 500.457031 160.890625 498.050781 C 161.410156 495.644531 159.9375 493.355469 157.671875 492.808594 L 23.824219 459.199219 C 44.238281 455.992188 64.425781 451.324219 84.253906 445.21875 C 107.808594 438 130.75 428.820312 152.664062 417.761719 C 196.710938 395.675781 236.980469 365.582031 270.765625 329.398438 L 273.960938 326.019531 C 275.039062 324.9375 276 323.664062 277.074219 322.585938 L 283.21875 315.660156 C 285.257812 313.304688 287.214844 310.894531 289.171875 308.484375 L 292.117188 304.941406 C 293.027344 303.75 293.992188 302.476562 295.039062 301.257812 L 300.738281 293.917969 L 306.191406 286.414062 C 307.15625 285.140625 308.0625 283.949219 308.945312 282.621094 L 311.617188 278.773438 C 313.320312 276.199219 315.113281 273.679688 316.734375 271.046875 C 323.535156 260.613281 329.777344 249.929688 335.609375 238.96875 C 341.4375 228.007812 346.769531 216.71875 351.714844 205.292969 C 361.519531 182.382812 369.222656 158.679688 375.097656 134.484375 C 380.699219 109.980469 384.613281 85.320312 386.066406 60.222656 C 386.382812 54.695312 382.199219 50.007812 376.671875 49.691406 C 371.140625 49.375 366.457031 53.558594 366.136719 59.085938 C 366.082031 59.171875 366.167969 59.226562 366.113281 59.308594 C 365.402344 83.105469 362.3125 106.878906 357.429688 130.300781 C 352.460938 153.667969 345.640625 176.761719 336.800781 199.113281 C 332.382812 210.289062 327.628906 221.246094 322.1875 231.984375 C 316.742188 242.722656 311.050781 253.292969 304.777344 263.480469 C 303.289062 266.082031 301.554688 268.519531 299.988281 271.066406 L 297.59375 274.859375 C 296.769531 276.105469 295.941406 277.351562 295.117188 278.59375 L 290.078125 286.015625 L 284.792969 293.269531 C 283.882812 294.460938 283.058594 295.707031 282.148438 296.898438 L 279.339844 300.414062 C 277.519531 302.796875 275.621094 305.121094 273.800781 307.503906 L 268.015625 314.429688 C 267.027344 315.5625 266.117188 316.753906 265.125 317.890625 L 262.066406 321.242188 C 230.132812 357.335938 191.742188 387.839844 149.078125 410.722656 C 127.828125 422.222656 105.414062 431.871094 82.414062 439.699219 C 63.253906 446.242188 43.589844 451.378906 23.703125 455.054688 L 117.464844 358.6875 C 119.007812 357.078125 119 354.566406 117.394531 353.019531 C 115.871094 351.53125 113.355469 351.539062 111.867188 353.0625 L 4.914062 457.425781 C 2.574219 459.695312 2.554688 463.511719 4.828125 465.855469 C 5.714844 466.679688 6.683594 467.203125 7.816406 467.476562 Z M 7.816406 467.476562 " fill-opacity="1" fill-rule="nonzero"/></g></g></g></g></g></g></g><g transform="matrix(1, 0, 0, 1, 357, 319)"><g clip-path="url(#326ed5c247)"><g fill="#5e253a" fill-opacity="1"><g transform="translate(80.574632, 167.292807)"><g><path d="M 36.640625 -0.53125 C 29.242188 -1.582031 23.253906 -5.8125 18.671875 -13.21875 C 14.796875 -19.4375 12.035156 -27.597656 10.390625 -37.703125 C 7.453125 -56.378906 8.453125 -76.816406 13.390625 -99.015625 C 14.566406 -104.421875 15.914062 -109.441406 17.4375 -114.078125 C 18.96875 -118.722656 20.671875 -122.921875 22.546875 -126.671875 C 26.191406 -134.191406 30.304688 -139.421875 34.890625 -142.359375 C 40.992188 -146.003906 47.097656 -145.648438 53.203125 -141.296875 C 58.847656 -136.953125 64.132812 -128.847656 69.0625 -116.984375 C 69.53125 -116.046875 69.585938 -114.988281 69.234375 -113.8125 C 68.648438 -112.757812 67.890625 -112.054688 66.953125 -111.703125 C 65.890625 -111.117188 64.890625 -111.117188 63.953125 -111.703125 C 63.015625 -112.054688 62.253906 -112.757812 61.671875 -113.8125 C 57.316406 -124.382812 52.851562 -131.375 48.28125 -134.78125 C 45.21875 -137.132812 42.222656 -137.367188 39.296875 -135.484375 C 35.648438 -133.140625 32.300781 -128.617188 29.25 -121.921875 C 26.195312 -115.222656 23.492188 -107 21.140625 -97.25 C 16.554688 -76.226562 15.675781 -56.789062 18.5 -38.9375 C 19.90625 -29.65625 22.253906 -22.550781 25.546875 -17.625 C 28.953125 -12.332031 33.0625 -9.335938 37.875 -8.640625 C 44.101562 -7.691406 48.6875 -9.21875 51.625 -13.21875 C 54.09375 -16.625 56.03125 -22.082031 57.4375 -29.59375 C 57.550781 -30.1875 57.695312 -30.863281 57.875 -31.625 C 58.050781 -32.382812 58.195312 -33.175781 58.3125 -34 C 58.3125 -34.238281 58.3125 -34.472656 58.3125 -34.703125 C 58.3125 -34.941406 58.375 -35.238281 58.5 -35.59375 C 58.613281 -35.820312 58.671875 -36.113281 58.671875 -36.46875 C 58.671875 -36.820312 58.726562 -37.117188 58.84375 -37.359375 L 59.015625 -38.40625 C 59.140625 -39.226562 59.257812 -39.988281 59.375 -40.6875 C 59.488281 -41.394531 59.609375 -42.046875 59.734375 -42.640625 C 59.960938 -43.691406 60.488281 -44.570312 61.3125 -45.28125 C 62.25 -45.863281 63.304688 -46.039062 64.484375 -45.8125 C 65.660156 -45.570312 66.484375 -45.039062 66.953125 -44.21875 C 67.535156 -43.164062 67.769531 -42.109375 67.65625 -41.046875 C 67.539062 -40.578125 67.421875 -40.019531 67.296875 -39.375 C 67.179688 -38.726562 67.066406 -37.992188 66.953125 -37.171875 L 66.78125 -36.296875 C 66.65625 -35.941406 66.59375 -35.585938 66.59375 -35.234375 C 66.59375 -34.878906 66.59375 -34.53125 66.59375 -34.1875 C 66.476562 -33.832031 66.421875 -33.535156 66.421875 -33.296875 C 66.421875 -33.066406 66.363281 -32.890625 66.25 -32.765625 C 66.132812 -31.941406 66.015625 -31.117188 65.890625 -30.296875 C 65.773438 -29.484375 65.660156 -28.78125 65.546875 -28.1875 C 64.722656 -23.726562 63.664062 -19.851562 62.375 -16.5625 C 61.082031 -13.269531 59.613281 -10.507812 57.96875 -8.28125 C 53.03125 -1.707031 45.921875 0.875 36.640625 -0.53125 Z M 36.640625 -0.53125 "/></g></g></g><g fill="#5e253a" fill-opacity="1"><g transform="translate(158.798669, 167.292807)"><g><path d="M 20.078125 0.359375 C 16.328125 -0.117188 13.453125 -1.175781 11.453125 -2.8125 C 10.628906 -3.632812 10.039062 -4.691406 9.6875 -5.984375 C 9.570312 -6.453125 9.484375 -6.921875 9.421875 -7.390625 C 9.367188 -7.867188 9.28125 -8.398438 9.15625 -8.984375 C 9.039062 -9.921875 8.953125 -11.066406 8.890625 -12.421875 C 8.835938 -13.773438 8.8125 -15.269531 8.8125 -16.90625 C 8.8125 -19.613281 8.898438 -22.726562 9.078125 -26.25 C 9.253906 -29.769531 9.457031 -33.765625 9.6875 -38.234375 C 9.800781 -39.878906 9.914062 -41.609375 10.03125 -43.421875 C 10.15625 -45.242188 10.273438 -47.097656 10.390625 -48.984375 C 10.515625 -49.453125 10.691406 -51.503906 10.921875 -55.140625 C 11.035156 -56.910156 11.148438 -58.613281 11.265625 -60.25 C 11.390625 -61.894531 11.507812 -63.484375 11.625 -65.015625 C 11.738281 -66.535156 11.828125 -67.707031 11.890625 -68.53125 C 11.953125 -69.351562 11.984375 -69.828125 11.984375 -69.953125 C 12.210938 -74.054688 12.210938 -80.570312 11.984375 -89.5 C 11.984375 -92.207031 11.984375 -94.613281 11.984375 -96.71875 C 11.984375 -98.832031 11.984375 -100.597656 11.984375 -102.015625 C 11.984375 -118.453125 13.273438 -131.3125 15.859375 -140.59375 C 16.085938 -141.65625 16.734375 -142.476562 17.796875 -143.0625 C 18.503906 -143.53125 19.503906 -143.648438 20.796875 -143.421875 C 21.847656 -143.066406 22.664062 -142.421875 23.25 -141.484375 C 23.84375 -140.535156 23.960938 -139.535156 23.609375 -138.484375 C 21.253906 -129.441406 20.078125 -117.285156 20.078125 -102.015625 C 20.078125 -100.597656 20.078125 -98.832031 20.078125 -96.71875 C 20.078125 -94.613281 20.078125 -92.207031 20.078125 -89.5 C 20.316406 -80.457031 20.316406 -73.820312 20.078125 -69.59375 C 20.078125 -69.476562 20.046875 -68.976562 19.984375 -68.09375 C 19.929688 -67.21875 19.847656 -66.015625 19.734375 -64.484375 C 19.617188 -62.953125 19.5 -61.332031 19.375 -59.625 C 19.257812 -57.925781 19.144531 -56.195312 19.03125 -54.4375 C 18.914062 -50.800781 18.738281 -48.804688 18.5 -48.453125 C 18.382812 -46.566406 18.265625 -44.710938 18.140625 -42.890625 C 18.023438 -41.078125 17.910156 -39.347656 17.796875 -37.703125 C 17.554688 -33.359375 17.347656 -29.453125 17.171875 -25.984375 C 16.992188 -22.523438 16.90625 -19.5 16.90625 -16.90625 C 16.90625 -15.382812 16.9375 -14.035156 17 -12.859375 C 17.0625 -11.679688 17.148438 -10.679688 17.265625 -9.859375 C 17.265625 -9.273438 17.320312 -8.867188 17.4375 -8.640625 C 17.5625 -8.515625 17.648438 -8.453125 17.703125 -8.453125 C 17.765625 -8.453125 17.851562 -8.394531 17.96875 -8.28125 C 18.4375 -8.164062 18.90625 -8.078125 19.375 -8.015625 C 19.84375 -7.953125 20.375 -7.863281 20.96875 -7.75 C 23.3125 -7.632812 26.128906 -7.632812 29.421875 -7.75 C 32.710938 -7.988281 35.5625 -8.3125 37.96875 -8.71875 C 40.375 -9.132812 42.34375 -9.632812 43.875 -10.21875 C 44.925781 -10.800781 45.984375 -10.800781 47.046875 -10.21875 C 48.097656 -9.75 48.859375 -8.984375 49.328125 -7.921875 C 49.679688 -6.753906 49.625 -5.757812 49.15625 -4.9375 C 48.6875 -4 47.984375 -3.234375 47.046875 -2.640625 C 45.160156 -1.816406 42.78125 -1.171875 39.90625 -0.703125 C 37.03125 -0.234375 33.710938 0.117188 29.953125 0.359375 C 26.191406 0.703125 22.898438 0.703125 20.078125 0.359375 Z M 20.078125 0.359375 "/></g></g></g><g fill="#5e253a" fill-opacity="1"><g transform="translate(217.114315, 167.292807)"><g><path d="M 15.15625 -2.8125 C 11.863281 -6.101562 9.863281 -14.738281 9.15625 -28.71875 C 8.925781 -34.238281 8.8125 -40.519531 8.8125 -47.5625 C 8.8125 -54.613281 9.046875 -62.3125 9.515625 -70.65625 C 9.867188 -78.050781 10.304688 -85.300781 10.828125 -92.40625 C 11.359375 -99.507812 12.035156 -106.46875 12.859375 -113.28125 C 14.390625 -126.789062 15.800781 -135.484375 17.09375 -139.359375 C 17.445312 -140.535156 18.148438 -141.359375 19.203125 -141.828125 C 20.023438 -142.296875 21.023438 -142.351562 22.203125 -142 C 23.140625 -141.65625 23.898438 -141.007812 24.484375 -140.0625 C 24.953125 -139.125 25.015625 -138.066406 24.671875 -136.890625 C 24.078125 -135.128906 23.457031 -132.132812 22.8125 -127.90625 C 22.164062 -123.675781 21.492188 -118.273438 20.796875 -111.703125 C 19.378906 -98.316406 18.320312 -84.515625 17.625 -70.296875 C 17.144531 -62.078125 16.90625 -54.53125 16.90625 -47.65625 C 16.90625 -40.789062 17.023438 -34.597656 17.265625 -29.078125 C 17.617188 -23.203125 18.148438 -18.382812 18.859375 -14.625 C 19.203125 -13.09375 19.550781 -11.625 19.90625 -10.21875 C 20.257812 -9.394531 20.554688 -8.867188 20.796875 -8.640625 C 21.617188 -7.816406 22.03125 -6.875 22.03125 -5.8125 C 22.03125 -4.757812 21.675781 -3.757812 20.96875 -2.8125 C 20.144531 -1.988281 19.144531 -1.578125 17.96875 -1.578125 C 16.789062 -1.578125 15.851562 -1.988281 15.15625 -2.8125 Z M 15.15625 -2.8125 "/></g></g></g><g fill="#5e253a" fill-opacity="1"><g transform="translate(250.764752, 167.292807)"><g><path d="M 46.6875 1.578125 C 41.164062 4.285156 35.820312 3.40625 30.65625 -1.0625 C 22.4375 -7.988281 16.328125 -21.847656 12.328125 -42.640625 C 10.335938 -52.859375 9.191406 -62.78125 8.890625 -72.40625 C 8.597656 -82.039062 9.097656 -91.320312 10.390625 -100.25 C 13.796875 -121.75 21.429688 -135.195312 33.296875 -140.59375 C 39.054688 -143.175781 44.164062 -142.585938 48.625 -138.828125 C 51.675781 -136.242188 53.847656 -132.132812 55.140625 -126.5 C 55.378906 -125.445312 55.207031 -124.445312 54.625 -123.5 C 54.03125 -122.445312 53.207031 -121.863281 52.15625 -121.75 C 50.976562 -121.625 49.921875 -121.800781 48.984375 -122.28125 C 47.921875 -122.863281 47.332031 -123.679688 47.21875 -124.734375 C 46.75 -126.617188 46.191406 -128.234375 45.546875 -129.578125 C 44.898438 -130.929688 44.109375 -132.019531 43.171875 -132.84375 C 41.523438 -134.375 39.347656 -134.492188 36.640625 -133.203125 C 27.484375 -129.085938 21.378906 -117.691406 18.328125 -99.015625 C 15.742188 -82.097656 16.390625 -63.832031 20.265625 -44.21875 C 22.023438 -35.289062 24.316406 -27.539062 27.140625 -20.96875 C 29.722656 -14.625 32.597656 -10.039062 35.765625 -7.21875 C 38.347656 -5.101562 40.753906 -4.632812 42.984375 -5.8125 C 46.390625 -7.34375 49.972656 -11.984375 53.734375 -19.734375 C 54.671875 -21.378906 55.203125 -23.257812 55.328125 -25.375 C 55.441406 -25.84375 55.5 -26.457031 55.5 -27.21875 C 55.5 -27.976562 55.554688 -28.832031 55.671875 -29.78125 C 55.785156 -32.007812 55.960938 -33.648438 56.203125 -34.703125 C 56.441406 -36.816406 56.796875 -38.640625 57.265625 -40.171875 C 57.617188 -41.347656 58.320312 -42.171875 59.375 -42.640625 C 60.195312 -43.109375 61.195312 -43.164062 62.375 -42.8125 C 63.425781 -42.457031 64.25 -41.8125 64.84375 -40.875 C 65.3125 -39.9375 65.367188 -38.878906 65.015625 -37.703125 C 64.773438 -36.878906 64.535156 -35.765625 64.296875 -34.359375 C 64.066406 -32.953125 63.894531 -31.304688 63.78125 -29.421875 C 63.664062 -28.242188 63.609375 -27.242188 63.609375 -26.421875 C 63.609375 -25.597656 63.546875 -24.894531 63.421875 -24.3125 C 63.304688 -22.789062 63.039062 -21.351562 62.625 -20 C 62.21875 -18.644531 61.722656 -17.378906 61.140625 -16.203125 C 58.910156 -11.503906 56.585938 -7.6875 54.171875 -4.75 C 51.765625 -1.820312 49.269531 0.285156 46.6875 1.578125 Z M 46.6875 1.578125 "/></g></g></g><g fill="#5e253a" fill-opacity="1"><g transform="translate(324.76048, 167.292807)"><g><path d="M 49.328125 0.359375 C 46.515625 -1.054688 43.460938 -5.347656 40.171875 -12.515625 C 38.878906 -15.328125 37.554688 -18.492188 36.203125 -22.015625 C 34.859375 -25.546875 33.476562 -29.484375 32.0625 -33.828125 C 28.1875 -45.335938 25.367188 -55.265625 23.609375 -63.609375 C 22.671875 -62.316406 21.703125 -61.082031 20.703125 -59.90625 C 19.703125 -58.726562 18.734375 -57.613281 17.796875 -56.5625 C 17.679688 -56.4375 17.5625 -56.34375 17.4375 -56.28125 C 17.320312 -56.226562 17.207031 -56.144531 17.09375 -56.03125 C 16.96875 -52.738281 16.875 -49.535156 16.8125 -46.421875 C 16.757812 -43.304688 16.789062 -40.398438 16.90625 -37.703125 C 17.03125 -36.765625 17.148438 -35.5 17.265625 -33.90625 C 17.378906 -32.320312 17.554688 -30.472656 17.796875 -28.359375 C 17.910156 -27.546875 17.992188 -26.8125 18.046875 -26.15625 C 18.109375 -25.507812 18.140625 -24.953125 18.140625 -24.484375 C 18.847656 -18.847656 18.910156 -14.035156 18.328125 -10.046875 C 18.328125 -9.804688 18.265625 -9.507812 18.140625 -9.15625 C 18.023438 -8.8125 17.96875 -8.519531 17.96875 -8.28125 C 17.851562 -7.925781 17.796875 -7.457031 17.796875 -6.875 C 17.796875 -6.75 17.796875 -6.6875 17.796875 -6.6875 C 17.796875 -6.6875 17.796875 -6.628906 17.796875 -6.515625 C 18.148438 -6.160156 18.441406 -5.457031 18.671875 -4.40625 C 18.796875 -3.34375 18.617188 -2.398438 18.140625 -1.578125 C 17.316406 -0.523438 16.378906 0.0546875 15.328125 0.171875 C 13.566406 0.523438 12.097656 0 10.921875 -1.40625 C 10.210938 -2.34375 9.800781 -3.222656 9.6875 -4.046875 C 9.570312 -5.109375 9.570312 -6.34375 9.6875 -7.75 C 9.800781 -7.988281 9.859375 -8.28125 9.859375 -8.625 C 9.859375 -8.976562 9.921875 -9.273438 10.046875 -9.515625 C 10.046875 -9.628906 10.046875 -9.742188 10.046875 -9.859375 C 10.046875 -9.984375 10.046875 -10.101562 10.046875 -10.21875 C 10.046875 -10.332031 10.046875 -10.445312 10.046875 -10.5625 C 10.046875 -10.6875 10.046875 -10.804688 10.046875 -10.921875 L 10.21875 -11.09375 C 10.800781 -14.269531 10.800781 -18.5 10.21875 -23.78125 C 10.101562 -24.71875 9.925781 -25.953125 9.6875 -27.484375 C 9.457031 -29.710938 9.28125 -31.648438 9.15625 -33.296875 C 9.039062 -34.941406 8.925781 -36.351562 8.8125 -37.53125 C 8.570312 -45.519531 8.921875 -56.675781 9.859375 -71 C 9.984375 -71.351562 10.046875 -72.175781 10.046875 -73.46875 C 10.515625 -78.875 10.835938 -83.601562 11.015625 -87.65625 C 11.191406 -91.707031 11.335938 -95.082031 11.453125 -97.78125 C 11.453125 -99.3125 11.421875 -101.015625 11.359375 -102.890625 C 11.304688 -104.773438 11.21875 -106.890625 11.09375 -109.234375 C 11.09375 -109.472656 11.09375 -109.738281 11.09375 -110.03125 C 11.09375 -110.320312 11.09375 -110.703125 11.09375 -111.171875 C 10.976562 -114.460938 10.890625 -117.3125 10.828125 -119.71875 C 10.773438 -122.125 10.75 -124.09375 10.75 -125.625 C 10.863281 -128.320312 11.066406 -130.90625 11.359375 -133.375 C 11.648438 -135.84375 12.035156 -138.191406 12.515625 -140.421875 C 12.628906 -141.472656 13.210938 -142.296875 14.265625 -142.890625 C 15.210938 -143.472656 16.269531 -143.648438 17.4375 -143.421875 C 18.5 -143.296875 19.320312 -142.707031 19.90625 -141.65625 C 20.5 -140.832031 20.675781 -139.773438 20.4375 -138.484375 C 19.613281 -134.835938 19.085938 -130.492188 18.859375 -125.453125 C 18.859375 -123.921875 18.882812 -121.976562 18.9375 -119.625 C 19 -117.28125 19.085938 -114.582031 19.203125 -111.53125 C 19.203125 -111.0625 19.203125 -110.675781 19.203125 -110.375 C 19.203125 -110.082031 19.203125 -109.820312 19.203125 -109.59375 C 19.316406 -107.125 19.40625 -104.921875 19.46875 -102.984375 C 19.53125 -101.046875 19.5 -99.3125 19.375 -97.78125 C 19.375 -94.96875 19.285156 -91.503906 19.109375 -87.390625 C 18.941406 -83.273438 18.617188 -78.457031 18.140625 -72.9375 C 18.140625 -71.53125 18.082031 -70.648438 17.96875 -70.296875 C 17.96875 -70.179688 17.96875 -70.09375 17.96875 -70.03125 C 17.96875 -69.976562 17.96875 -69.890625 17.96875 -69.765625 C 18.789062 -71.054688 19.613281 -72.378906 20.4375 -73.734375 C 21.257812 -75.085938 22.082031 -76.523438 22.90625 -78.046875 C 24.082031 -80.160156 25.375 -82.863281 26.78125 -86.15625 C 28.1875 -89.445312 29.832031 -93.265625 31.71875 -97.609375 C 31.832031 -97.722656 31.890625 -97.835938 31.890625 -97.953125 L 32.0625 -98.3125 C 32.1875 -98.425781 32.25 -98.539062 32.25 -98.65625 C 32.25 -98.78125 32.304688 -98.898438 32.421875 -99.015625 C 36.765625 -109.347656 40.347656 -117.039062 43.171875 -122.09375 C 45.515625 -126.207031 47.976562 -129.90625 50.5625 -133.1875 C 53.144531 -136.476562 55.90625 -139.300781 58.84375 -141.65625 C 59.78125 -142.363281 60.835938 -142.71875 62.015625 -142.71875 C 63.191406 -142.476562 64.070312 -142.003906 64.65625 -141.296875 C 65.363281 -140.359375 65.660156 -139.363281 65.546875 -138.3125 C 65.304688 -137.019531 64.832031 -136.078125 64.125 -135.484375 C 59.082031 -131.378906 54.445312 -125.566406 50.21875 -118.046875 C 48.925781 -115.691406 47.394531 -112.664062 45.625 -108.96875 C 43.863281 -105.269531 41.925781 -100.894531 39.8125 -95.84375 C 39.8125 -95.84375 39.695312 -95.609375 39.46875 -95.140625 L 39.46875 -94.96875 L 39.296875 -94.4375 C 37.410156 -89.96875 35.703125 -86.0625 34.171875 -82.71875 C 32.648438 -79.375 31.300781 -76.582031 30.125 -74.34375 C 30.007812 -74.226562 29.953125 -74.113281 29.953125 -74 C 30.304688 -73.289062 30.484375 -72.585938 30.484375 -71.890625 C 30.597656 -70.710938 30.890625 -68.945312 31.359375 -66.59375 C 31.828125 -64.25 32.472656 -61.375 33.296875 -57.96875 C 35.054688 -50.914062 37.171875 -43.691406 39.640625 -36.296875 C 41.046875 -32.179688 42.425781 -28.421875 43.78125 -25.015625 C 45.132812 -21.609375 46.398438 -18.554688 47.578125 -15.859375 C 48.742188 -13.148438 49.914062 -10.914062 51.09375 -9.15625 C 51.675781 -8.332031 52.144531 -7.6875 52.5 -7.21875 L 52.859375 -6.875 C 53.910156 -6.28125 54.613281 -5.515625 54.96875 -4.578125 C 55.320312 -3.398438 55.265625 -2.398438 54.796875 -1.578125 C 54.328125 -0.523438 53.503906 0.175781 52.328125 0.53125 C 51.148438 0.882812 50.148438 0.828125 49.328125 0.359375 Z M 49.328125 0.359375 "/></g></g></g><g fill="#5e253a" fill-opacity="1"><g transform="translate(399.108524, 167.292807)"><g/></g></g><g fill="#5e253a" fill-opacity="1"><g transform="translate(469.580637, 167.292807)"><g><path d="M 32.765625 5.109375 C 31.941406 4.867188 31.117188 4.398438 30.296875 3.703125 C 29.597656 2.765625 29.25 1.882812 29.25 1.0625 C 29.25 0.820312 29.304688 0.644531 29.421875 0.53125 C 29.421875 -0.0625 29.476562 -0.53125 29.59375 -0.875 C 29.476562 -1 29.421875 -1.175781 29.421875 -1.40625 L 29.421875 -1.765625 C 29.421875 -2.234375 29.476562 -2.523438 29.59375 -2.640625 C 29.59375 -2.992188 29.65625 -3.226562 29.78125 -3.34375 C 29.78125 -3.46875 29.78125 -3.53125 29.78125 -3.53125 C 29.78125 -3.53125 29.78125 -3.585938 29.78125 -3.703125 C 30.007812 -5.816406 30.125 -8.3125 30.125 -11.1875 C 30.125 -14.0625 30.066406 -17.320312 29.953125 -20.96875 C 29.835938 -23.550781 29.691406 -27.425781 29.515625 -32.59375 C 29.335938 -37.757812 29.070312 -44.28125 28.71875 -52.15625 C 28.25 -64.132812 27.894531 -73.882812 27.65625 -81.40625 C 27.1875 -100.894531 27.539062 -116.804688 28.71875 -129.140625 L 28.1875 -129.140625 C 24.78125 -129.140625 21.785156 -129.140625 19.203125 -129.140625 C 16.617188 -129.140625 14.503906 -129.203125 12.859375 -129.328125 C 11.804688 -129.328125 10.867188 -129.738281 10.046875 -130.5625 C 9.222656 -131.375 8.867188 -132.367188 8.984375 -133.546875 C 8.984375 -134.609375 9.394531 -135.550781 10.21875 -136.375 C 11.15625 -137.070312 12.09375 -137.421875 13.03125 -137.421875 C 14.675781 -137.304688 16.789062 -137.25 19.375 -137.25 C 21.957031 -137.25 24.894531 -137.25 28.1875 -137.25 C 30.070312 -137.25 31.6875 -137.25 33.03125 -137.25 C 34.382812 -137.25 35.472656 -137.191406 36.296875 -137.078125 C 41.347656 -137.078125 45.957031 -136.988281 50.125 -136.8125 C 54.289062 -136.632812 58.078125 -136.3125 61.484375 -135.84375 C 62.660156 -135.601562 63.539062 -135.132812 64.125 -134.4375 C 64.832031 -133.488281 65.128906 -132.488281 65.015625 -131.4375 C 64.773438 -130.144531 64.304688 -129.203125 63.609375 -128.609375 C 62.660156 -127.910156 61.660156 -127.617188 60.609375 -127.734375 C 57.316406 -128.203125 53.703125 -128.523438 49.765625 -128.703125 C 45.835938 -128.878906 41.523438 -128.96875 36.828125 -128.96875 C 35.648438 -116.875 35.296875 -101.132812 35.765625 -81.75 C 35.878906 -74.46875 36.234375 -64.71875 36.828125 -52.5 C 37.179688 -44.632812 37.441406 -38.085938 37.609375 -32.859375 C 37.785156 -27.628906 37.9375 -23.664062 38.0625 -20.96875 C 38.175781 -19.320312 38.234375 -17.707031 38.234375 -16.125 C 38.234375 -14.539062 38.234375 -13.039062 38.234375 -11.625 L 38.40625 -11.28125 C 38.644531 -10.570312 38.765625 -10.21875 38.765625 -10.21875 C 38.878906 -10.101562 38.9375 -9.867188 38.9375 -9.515625 L 38.9375 -9.15625 C 38.695312 -8.570312 38.171875 -4.992188 37.359375 1.578125 C 37.117188 2.753906 36.707031 3.640625 36.125 4.234375 C 35.175781 4.816406 34.289062 5.109375 33.46875 5.109375 C 33.351562 5.109375 33.238281 5.109375 33.125 5.109375 C 33.007812 5.109375 32.890625 5.109375 32.765625 5.109375 Z M 32.765625 5.109375 "/></g></g></g><g fill="#5e253a" fill-opacity="1"><g transform="translate(543.400141, 167.292807)"><g><path d="M 34.359375 -7.921875 C 26.140625 -13.328125 19.914062 -20.847656 15.6875 -30.484375 C 11.332031 -39.992188 9.039062 -50.914062 8.8125 -63.25 C 8.695312 -73.9375 10.101562 -84.566406 13.03125 -95.140625 C 16.09375 -105.828125 20.207031 -114.753906 25.375 -121.921875 C 28.425781 -126.378906 31.242188 -129.550781 33.828125 -131.4375 C 37.941406 -134.84375 42.460938 -136.253906 47.390625 -135.671875 C 48.453125 -135.546875 49.332031 -135.015625 50.03125 -134.078125 C 50.738281 -133.140625 51.035156 -132.140625 50.921875 -131.078125 C 50.921875 -130.960938 50.859375 -130.90625 50.734375 -130.90625 C 51.679688 -130.789062 52.390625 -130.4375 52.859375 -129.84375 C 60.140625 -123.382812 65.597656 -111.9375 69.234375 -95.5 C 72.640625 -80.457031 73.875 -65.066406 72.9375 -49.328125 C 72 -32.296875 68.769531 -19.847656 63.25 -11.984375 C 59.726562 -6.929688 55.5 -4.050781 50.5625 -3.34375 C 45.632812 -2.644531 40.234375 -4.171875 34.359375 -7.921875 Z M 49.515625 -11.28125 C 52.097656 -11.75 54.445312 -13.507812 56.5625 -16.5625 C 61.375 -23.488281 64.191406 -34.53125 65.015625 -49.6875 C 65.953125 -64.71875 64.71875 -79.34375 61.3125 -93.5625 C 58.019531 -108.125 53.378906 -118.222656 47.390625 -123.859375 C 46.210938 -124.921875 45.800781 -126.15625 46.15625 -127.5625 C 43.34375 -127.789062 40.878906 -126.96875 38.765625 -125.09375 C 36.878906 -123.5625 34.585938 -120.921875 31.890625 -117.171875 C 27.078125 -110.472656 23.378906 -102.304688 20.796875 -92.671875 C 19.503906 -87.859375 18.503906 -82.984375 17.796875 -78.046875 C 17.085938 -73.117188 16.789062 -68.1875 16.90625 -63.25 C 17.144531 -52.207031 19.085938 -42.578125 22.734375 -34.359375 C 26.367188 -26.140625 31.710938 -19.5625 38.765625 -14.625 C 42.992188 -11.925781 46.578125 -10.8125 49.515625 -11.28125 Z M 49.515625 -11.28125 "/></g></g></g><g fill="#5e253a" fill-opacity="1"><g transform="translate(0.94679, 371.032141)"><g><path d="M 18.859375 3.703125 C 17.910156 3.585938 17.023438 3.117188 16.203125 2.296875 C 13.742188 -0.878906 11.867188 -9.804688 10.578125 -24.484375 C 10.097656 -30.003906 9.738281 -36.460938 9.5 -43.859375 C 9.269531 -51.265625 9.039062 -59.550781 8.8125 -68.71875 C 8.695312 -75.53125 8.664062 -83.046875 8.71875 -91.265625 C 8.78125 -99.484375 8.867188 -108.46875 8.984375 -118.21875 C 8.984375 -118.6875 8.984375 -119.390625 8.984375 -120.328125 C 8.984375 -121.273438 8.984375 -122.507812 8.984375 -124.03125 C 8.984375 -125.445312 8.984375 -126.535156 8.984375 -127.296875 C 8.984375 -128.054688 8.984375 -128.492188 8.984375 -128.609375 C 8.984375 -130.253906 8.984375 -131.632812 8.984375 -132.75 C 8.984375 -133.875 8.984375 -134.726562 8.984375 -135.3125 C 8.984375 -136.488281 9.394531 -137.488281 10.21875 -138.3125 C 11.15625 -139.007812 12.15625 -139.359375 13.21875 -139.359375 C 14.269531 -139.359375 15.207031 -139.007812 16.03125 -138.3125 C 16.738281 -137.488281 17.09375 -136.488281 17.09375 -135.3125 C 17.09375 -134.726562 17.09375 -133.847656 17.09375 -132.671875 C 17.09375 -131.492188 17.09375 -130.082031 17.09375 -128.4375 C 17.09375 -128.320312 17.09375 -127.910156 17.09375 -127.203125 C 17.09375 -126.503906 17.09375 -125.390625 17.09375 -123.859375 C 17.09375 -122.328125 17.09375 -121.09375 17.09375 -120.15625 C 17.09375 -119.21875 17.09375 -118.515625 17.09375 -118.046875 C 16.96875 -108.410156 16.875 -99.484375 16.8125 -91.265625 C 16.757812 -83.046875 16.789062 -75.53125 16.90625 -68.71875 C 17.03125 -59.789062 17.238281 -51.679688 17.53125 -44.390625 C 17.820312 -37.109375 18.203125 -30.707031 18.671875 -25.1875 C 18.910156 -21.90625 19.175781 -19 19.46875 -16.46875 C 19.757812 -13.945312 20.140625 -11.6875 20.609375 -9.6875 C 20.960938 -7.8125 21.316406 -6.226562 21.671875 -4.9375 C 21.910156 -5.050781 22.113281 -5.109375 22.28125 -5.109375 C 22.457031 -5.109375 22.609375 -5.164062 22.734375 -5.28125 C 22.847656 -5.40625 23.019531 -5.46875 23.25 -5.46875 L 24.3125 -5.984375 C 25.132812 -6.222656 25.601562 -6.398438 25.71875 -6.515625 C 26.1875 -6.753906 26.597656 -6.929688 26.953125 -7.046875 C 27.304688 -7.160156 27.601562 -7.28125 27.84375 -7.40625 C 28.539062 -7.519531 29.242188 -7.601562 29.953125 -7.65625 C 30.660156 -7.71875 31.363281 -7.691406 32.0625 -7.578125 C 33 -7.335938 34.113281 -7.160156 35.40625 -7.046875 C 37.519531 -6.578125 38.816406 -6.578125 39.296875 -7.046875 C 40.234375 -7.753906 41.289062 -8.046875 42.46875 -7.921875 C 43.519531 -7.804688 44.398438 -7.28125 45.109375 -6.34375 C 45.804688 -5.40625 46.097656 -4.46875 45.984375 -3.53125 C 45.867188 -2.351562 45.34375 -1.410156 44.40625 -0.703125 C 42.757812 0.585938 40.757812 1.347656 38.40625 1.578125 C 37.9375 1.578125 37.289062 1.519531 36.46875 1.40625 C 35.644531 1.289062 34.707031 1.113281 33.65625 0.875 C 31.769531 0.53125 30.476562 0.414062 29.78125 0.53125 L 29.59375 0.703125 C 29.25 0.703125 28.957031 0.757812 28.71875 0.875 C 28.476562 1.113281 28.066406 1.289062 27.484375 1.40625 L 26.421875 1.9375 C 26.304688 2.050781 26.191406 2.109375 26.078125 2.109375 C 25.960938 2.109375 25.84375 2.171875 25.71875 2.296875 C 25.019531 2.523438 24.40625 2.753906 23.875 2.984375 C 23.34375 3.222656 22.84375 3.40625 22.375 3.53125 C 21.90625 3.644531 21.523438 3.726562 21.234375 3.78125 C 20.941406 3.84375 20.675781 3.875 20.4375 3.875 C 19.726562 3.875 19.203125 3.816406 18.859375 3.703125 Z M 18.859375 3.703125 "/></g></g></g><g fill="#5e253a" fill-opacity="1"><g transform="translate(55.73883, 371.032141)"><g><path d="M 34.359375 -7.921875 C 26.140625 -13.328125 19.914062 -20.847656 15.6875 -30.484375 C 11.332031 -39.992188 9.039062 -50.914062 8.8125 -63.25 C 8.695312 -73.9375 10.101562 -84.566406 13.03125 -95.140625 C 16.09375 -105.828125 20.207031 -114.753906 25.375 -121.921875 C 28.425781 -126.378906 31.242188 -129.550781 33.828125 -131.4375 C 37.941406 -134.84375 42.460938 -136.253906 47.390625 -135.671875 C 48.453125 -135.546875 49.332031 -135.015625 50.03125 -134.078125 C 50.738281 -133.140625 51.035156 -132.140625 50.921875 -131.078125 C 50.921875 -130.960938 50.859375 -130.90625 50.734375 -130.90625 C 51.679688 -130.789062 52.390625 -130.4375 52.859375 -129.84375 C 60.140625 -123.382812 65.597656 -111.9375 69.234375 -95.5 C 72.640625 -80.457031 73.875 -65.066406 72.9375 -49.328125 C 72 -32.296875 68.769531 -19.847656 63.25 -11.984375 C 59.726562 -6.929688 55.5 -4.050781 50.5625 -3.34375 C 45.632812 -2.644531 40.234375 -4.171875 34.359375 -7.921875 Z M 49.515625 -11.28125 C 52.097656 -11.75 54.445312 -13.507812 56.5625 -16.5625 C 61.375 -23.488281 64.191406 -34.53125 65.015625 -49.6875 C 65.953125 -64.71875 64.71875 -79.34375 61.3125 -93.5625 C 58.019531 -108.125 53.378906 -118.222656 47.390625 -123.859375 C 46.210938 -124.921875 45.800781 -126.15625 46.15625 -127.5625 C 43.34375 -127.789062 40.878906 -126.96875 38.765625 -125.09375 C 36.878906 -123.5625 34.585938 -120.921875 31.890625 -117.171875 C 27.078125 -110.472656 23.378906 -102.304688 20.796875 -92.671875 C 19.503906 -87.859375 18.503906 -82.984375 17.796875 -78.046875 C 17.085938 -73.117188 16.789062 -68.1875 16.90625 -63.25 C 17.144531 -52.207031 19.085938 -42.578125 22.734375 -34.359375 C 26.367188 -26.140625 31.710938 -19.5625 38.765625 -14.625 C 42.992188 -11.925781 46.578125 -10.8125 49.515625 -11.28125 Z M 49.515625 -11.28125 "/></g></g></g><g fill="#5e253a" fill-opacity="1"><g transform="translate(137.838809, 371.032141)"><g><path d="M 34.359375 -7.921875 C 26.140625 -13.328125 19.914062 -20.847656 15.6875 -30.484375 C 11.332031 -39.992188 9.039062 -50.914062 8.8125 -63.25 C 8.695312 -73.9375 10.101562 -84.566406 13.03125 -95.140625 C 16.09375 -105.828125 20.207031 -114.753906 25.375 -121.921875 C 28.425781 -126.378906 31.242188 -129.550781 33.828125 -131.4375 C 37.941406 -134.84375 42.460938 -136.253906 47.390625 -135.671875 C 48.453125 -135.546875 49.332031 -135.015625 50.03125 -134.078125 C 50.738281 -133.140625 51.035156 -132.140625 50.921875 -131.078125 C 50.921875 -130.960938 50.859375 -130.90625 50.734375 -130.90625 C 51.679688 -130.789062 52.390625 -130.4375 52.859375 -129.84375 C 60.140625 -123.382812 65.597656 -111.9375 69.234375 -95.5 C 72.640625 -80.457031 73.875 -65.066406 72.9375 -49.328125 C 72 -32.296875 68.769531 -19.847656 63.25 -11.984375 C 59.726562 -6.929688 55.5 -4.050781 50.5625 -3.34375 C 45.632812 -2.644531 40.234375 -4.171875 34.359375 -7.921875 Z M 49.515625 -11.28125 C 52.097656 -11.75 54.445312 -13.507812 56.5625 -16.5625 C 61.375 -23.488281 64.191406 -34.53125 65.015625 -49.6875 C 65.953125 -64.71875 64.71875 -79.34375 61.3125 -93.5625 C 58.019531 -108.125 53.378906 -118.222656 47.390625 -123.859375 C 46.210938 -124.921875 45.800781 -126.15625 46.15625 -127.5625 C 43.34375 -127.789062 40.878906 -126.96875 38.765625 -125.09375 C 36.878906 -123.5625 34.585938 -120.921875 31.890625 -117.171875 C 27.078125 -110.472656 23.378906 -102.304688 20.796875 -92.671875 C 19.503906 -87.859375 18.503906 -82.984375 17.796875 -78.046875 C 17.085938 -73.117188 16.789062 -68.1875 16.90625 -63.25 C 17.144531 -52.207031 19.085938 -42.578125 22.734375 -34.359375 C 26.367188 -26.140625 31.710938 -19.5625 38.765625 -14.625 C 42.992188 -11.925781 46.578125 -10.8125 49.515625 -11.28125 Z M 49.515625 -11.28125 "/></g></g></g><g fill="#5e253a" fill-opacity="1"><g transform="translate(219.938797, 371.032141)"><g><path d="M 49.328125 0.359375 C 46.515625 -1.054688 43.460938 -5.347656 40.171875 -12.515625 C 38.878906 -15.328125 37.554688 -18.492188 36.203125 -22.015625 C 34.859375 -25.546875 33.476562 -29.484375 32.0625 -33.828125 C 28.1875 -45.335938 25.367188 -55.265625 23.609375 -63.609375 C 22.671875 -62.316406 21.703125 -61.082031 20.703125 -59.90625 C 19.703125 -58.726562 18.734375 -57.613281 17.796875 -56.5625 C 17.679688 -56.4375 17.5625 -56.34375 17.4375 -56.28125 C 17.320312 -56.226562 17.207031 -56.144531 17.09375 -56.03125 C 16.96875 -52.738281 16.875 -49.535156 16.8125 -46.421875 C 16.757812 -43.304688 16.789062 -40.398438 16.90625 -37.703125 C 17.03125 -36.765625 17.148438 -35.5 17.265625 -33.90625 C 17.378906 -32.320312 17.554688 -30.472656 17.796875 -28.359375 C 17.910156 -27.546875 17.992188 -26.8125 18.046875 -26.15625 C 18.109375 -25.507812 18.140625 -24.953125 18.140625 -24.484375 C 18.847656 -18.847656 18.910156 -14.035156 18.328125 -10.046875 C 18.328125 -9.804688 18.265625 -9.507812 18.140625 -9.15625 C 18.023438 -8.8125 17.96875 -8.519531 17.96875 -8.28125 C 17.851562 -7.925781 17.796875 -7.457031 17.796875 -6.875 C 17.796875 -6.75 17.796875 -6.6875 17.796875 -6.6875 C 17.796875 -6.6875 17.796875 -6.628906 17.796875 -6.515625 C 18.148438 -6.160156 18.441406 -5.457031 18.671875 -4.40625 C 18.796875 -3.34375 18.617188 -2.398438 18.140625 -1.578125 C 17.316406 -0.523438 16.378906 0.0546875 15.328125 0.171875 C 13.566406 0.523438 12.097656 0 10.921875 -1.40625 C 10.210938 -2.34375 9.800781 -3.222656 9.6875 -4.046875 C 9.570312 -5.109375 9.570312 -6.34375 9.6875 -7.75 C 9.800781 -7.988281 9.859375 -8.28125 9.859375 -8.625 C 9.859375 -8.976562 9.921875 -9.273438 10.046875 -9.515625 C 10.046875 -9.628906 10.046875 -9.742188 10.046875 -9.859375 C 10.046875 -9.984375 10.046875 -10.101562 10.046875 -10.21875 C 10.046875 -10.332031 10.046875 -10.445312 10.046875 -10.5625 C 10.046875 -10.6875 10.046875 -10.804688 10.046875 -10.921875 L 10.21875 -11.09375 C 10.800781 -14.269531 10.800781 -18.5 10.21875 -23.78125 C 10.101562 -24.71875 9.925781 -25.953125 9.6875 -27.484375 C 9.457031 -29.710938 9.28125 -31.648438 9.15625 -33.296875 C 9.039062 -34.941406 8.925781 -36.351562 8.8125 -37.53125 C 8.570312 -45.519531 8.921875 -56.675781 9.859375 -71 C 9.984375 -71.351562 10.046875 -72.175781 10.046875 -73.46875 C 10.515625 -78.875 10.835938 -83.601562 11.015625 -87.65625 C 11.191406 -91.707031 11.335938 -95.082031 11.453125 -97.78125 C 11.453125 -99.3125 11.421875 -101.015625 11.359375 -102.890625 C 11.304688 -104.773438 11.21875 -106.890625 11.09375 -109.234375 C 11.09375 -109.472656 11.09375 -109.738281 11.09375 -110.03125 C 11.09375 -110.320312 11.09375 -110.703125 11.09375 -111.171875 C 10.976562 -114.460938 10.890625 -117.3125 10.828125 -119.71875 C 10.773438 -122.125 10.75 -124.09375 10.75 -125.625 C 10.863281 -128.320312 11.066406 -130.90625 11.359375 -133.375 C 11.648438 -135.84375 12.035156 -138.191406 12.515625 -140.421875 C 12.628906 -141.472656 13.210938 -142.296875 14.265625 -142.890625 C 15.210938 -143.472656 16.269531 -143.648438 17.4375 -143.421875 C 18.5 -143.296875 19.320312 -142.707031 19.90625 -141.65625 C 20.5 -140.832031 20.675781 -139.773438 20.4375 -138.484375 C 19.613281 -134.835938 19.085938 -130.492188 18.859375 -125.453125 C 18.859375 -123.921875 18.882812 -121.976562 18.9375 -119.625 C 19 -117.28125 19.085938 -114.582031 19.203125 -111.53125 C 19.203125 -111.0625 19.203125 -110.675781 19.203125 -110.375 C 19.203125 -110.082031 19.203125 -109.820312 19.203125 -109.59375 C 19.316406 -107.125 19.40625 -104.921875 19.46875 -102.984375 C 19.53125 -101.046875 19.5 -99.3125 19.375 -97.78125 C 19.375 -94.96875 19.285156 -91.503906 19.109375 -87.390625 C 18.941406 -83.273438 18.617188 -78.457031 18.140625 -72.9375 C 18.140625 -71.53125 18.082031 -70.648438 17.96875 -70.296875 C 17.96875 -70.179688 17.96875 -70.09375 17.96875 -70.03125 C 17.96875 -69.976562 17.96875 -69.890625 17.96875 -69.765625 C 18.789062 -71.054688 19.613281 -72.378906 20.4375 -73.734375 C 21.257812 -75.085938 22.082031 -76.523438 22.90625 -78.046875 C 24.082031 -80.160156 25.375 -82.863281 26.78125 -86.15625 C 28.1875 -89.445312 29.832031 -93.265625 31.71875 -97.609375 C 31.832031 -97.722656 31.890625 -97.835938 31.890625 -97.953125 L 32.0625 -98.3125 C 32.1875 -98.425781 32.25 -98.539062 32.25 -98.65625 C 32.25 -98.78125 32.304688 -98.898438 32.421875 -99.015625 C 36.765625 -109.347656 40.347656 -117.039062 43.171875 -122.09375 C 45.515625 -126.207031 47.976562 -129.90625 50.5625 -133.1875 C 53.144531 -136.476562 55.90625 -139.300781 58.84375 -141.65625 C 59.78125 -142.363281 60.835938 -142.71875 62.015625 -142.71875 C 63.191406 -142.476562 64.070312 -142.003906 64.65625 -141.296875 C 65.363281 -140.359375 65.660156 -139.363281 65.546875 -138.3125 C 65.304688 -137.019531 64.832031 -136.078125 64.125 -135.484375 C 59.082031 -131.378906 54.445312 -125.566406 50.21875 -118.046875 C 48.925781 -115.691406 47.394531 -112.664062 45.625 -108.96875 C 43.863281 -105.269531 41.925781 -100.894531 39.8125 -95.84375 C 39.8125 -95.84375 39.695312 -95.609375 39.46875 -95.140625 L 39.46875 -94.96875 L 39.296875 -94.4375 C 37.410156 -89.96875 35.703125 -86.0625 34.171875 -82.71875 C 32.648438 -79.375 31.300781 -76.582031 30.125 -74.34375 C 30.007812 -74.226562 29.953125 -74.113281 29.953125 -74 C 30.304688 -73.289062 30.484375 -72.585938 30.484375 -71.890625 C 30.597656 -70.710938 30.890625 -68.945312 31.359375 -66.59375 C 31.828125 -64.25 32.472656 -61.375 33.296875 -57.96875 C 35.054688 -50.914062 37.171875 -43.691406 39.640625 -36.296875 C 41.046875 -32.179688 42.425781 -28.421875 43.78125 -25.015625 C 45.132812 -21.609375 46.398438 -18.554688 47.578125 -15.859375 C 48.742188 -13.148438 49.914062 -10.914062 51.09375 -9.15625 C 51.675781 -8.332031 52.144531 -7.6875 52.5 -7.21875 L 52.859375 -6.875 C 53.910156 -6.28125 54.613281 -5.515625 54.96875 -4.578125 C 55.320312 -3.398438 55.265625 -2.398438 54.796875 -1.578125 C 54.328125 -0.523438 53.503906 0.175781 52.328125 0.53125 C 51.148438 0.882812 50.148438 0.828125 49.328125 0.359375 Z M 49.328125 0.359375 "/></g></g></g><g fill="#5e253a" fill-opacity="1"><g transform="translate(294.286841, 371.032141)"><g/></g></g><g fill="#5e253a" fill-opacity="1"><g transform="translate(364.758954, 371.032141)"><g><path d="M 15.15625 -2.8125 C 11.863281 -6.101562 9.863281 -14.738281 9.15625 -28.71875 C 8.925781 -34.238281 8.8125 -40.519531 8.8125 -47.5625 C 8.8125 -54.613281 9.046875 -62.3125 9.515625 -70.65625 C 9.867188 -78.050781 10.304688 -85.300781 10.828125 -92.40625 C 11.359375 -99.507812 12.035156 -106.46875 12.859375 -113.28125 C 14.390625 -126.789062 15.800781 -135.484375 17.09375 -139.359375 C 17.445312 -140.535156 18.148438 -141.359375 19.203125 -141.828125 C 20.023438 -142.296875 21.023438 -142.351562 22.203125 -142 C 23.140625 -141.65625 23.898438 -141.007812 24.484375 -140.0625 C 24.953125 -139.125 25.015625 -138.066406 24.671875 -136.890625 C 24.078125 -135.128906 23.457031 -132.132812 22.8125 -127.90625 C 22.164062 -123.675781 21.492188 -118.273438 20.796875 -111.703125 C 19.378906 -98.316406 18.320312 -84.515625 17.625 -70.296875 C 17.144531 -62.078125 16.90625 -54.53125 16.90625 -47.65625 C 16.90625 -40.789062 17.023438 -34.597656 17.265625 -29.078125 C 17.617188 -23.203125 18.148438 -18.382812 18.859375 -14.625 C 19.203125 -13.09375 19.550781 -11.625 19.90625 -10.21875 C 20.257812 -9.394531 20.554688 -8.867188 20.796875 -8.640625 C 21.617188 -7.816406 22.03125 -6.875 22.03125 -5.8125 C 22.03125 -4.757812 21.675781 -3.757812 20.96875 -2.8125 C 20.144531 -1.988281 19.144531 -1.578125 17.96875 -1.578125 C 16.789062 -1.578125 15.851562 -1.988281 15.15625 -2.8125 Z M 15.15625 -2.8125 "/></g></g></g><g fill="#5e253a" fill-opacity="1"><g transform="translate(398.409391, 371.032141)"><g><path d="M 11.453125 1.0625 C 9.921875 -2.695312 9.039062 -11.6875 8.8125 -25.90625 C 8.695312 -32.125 8.722656 -38.816406 8.890625 -45.984375 C 9.066406 -53.148438 9.332031 -60.726562 9.6875 -68.71875 C 10.039062 -76.695312 10.476562 -84.0625 11 -90.8125 C 11.53125 -97.570312 12.09375 -103.710938 12.6875 -109.234375 C 13.394531 -115.335938 14.097656 -119.976562 14.796875 -123.15625 C 15.148438 -125.15625 15.5625 -126.625 16.03125 -127.5625 C 16.96875 -129.789062 18.082031 -131.140625 19.375 -131.609375 C 20.789062 -132.203125 22.082031 -132.085938 23.25 -131.265625 C 23.726562 -131.140625 24.203125 -130.726562 24.671875 -130.03125 C 25.140625 -129.320312 25.429688 -128.734375 25.546875 -128.265625 C 25.785156 -127.796875 25.960938 -127.328125 26.078125 -126.859375 C 26.191406 -126.390625 26.304688 -125.859375 26.421875 -125.265625 C 26.546875 -124.796875 26.664062 -124.351562 26.78125 -123.9375 C 26.894531 -123.53125 27.015625 -123.09375 27.140625 -122.625 C 27.253906 -122.507812 27.3125 -122.21875 27.3125 -121.75 L 27.3125 -121.390625 C 27.539062 -120.804688 27.710938 -120.21875 27.828125 -119.625 C 27.953125 -119.039062 28.070312 -118.457031 28.1875 -117.875 C 28.1875 -117.40625 28.242188 -116.992188 28.359375 -116.640625 C 28.484375 -116.398438 28.546875 -116.160156 28.546875 -115.921875 C 28.546875 -115.691406 28.601562 -115.460938 28.71875 -115.234375 C 28.832031 -114.992188 28.890625 -114.726562 28.890625 -114.4375 C 28.890625 -114.144531 28.953125 -113.878906 29.078125 -113.640625 C 29.191406 -113.398438 29.25 -113.132812 29.25 -112.84375 C 29.25 -112.550781 29.304688 -112.289062 29.421875 -112.0625 C 29.660156 -111.351562 29.78125 -111 29.78125 -111 L 29.78125 -110.46875 C 30.363281 -107.53125 30.890625 -105.0625 31.359375 -103.0625 C 32.648438 -97.425781 33.707031 -92.492188 34.53125 -88.265625 C 36.0625 -81.691406 37.617188 -75.582031 39.203125 -69.9375 C 40.785156 -64.300781 42.34375 -59.078125 43.875 -54.265625 C 45.519531 -49.210938 47.25 -44.453125 49.0625 -39.984375 C 50.882812 -35.523438 52.796875 -31.242188 54.796875 -27.140625 C 54.796875 -27.253906 54.796875 -27.3125 54.796875 -27.3125 C 54.796875 -27.3125 54.796875 -27.367188 54.796875 -27.484375 C 54.910156 -28.660156 54.992188 -30.453125 55.046875 -32.859375 C 55.109375 -35.265625 55.140625 -38.347656 55.140625 -42.109375 C 55.140625 -44.335938 55.140625 -47.535156 55.140625 -51.703125 C 55.140625 -55.878906 55.082031 -61.019531 54.96875 -67.125 C 54.851562 -69.832031 54.796875 -72.269531 54.796875 -74.4375 C 54.796875 -76.613281 54.796875 -78.523438 54.796875 -80.171875 C 54.679688 -88.503906 54.648438 -95.8125 54.703125 -102.09375 C 54.765625 -108.382812 54.851562 -113.582031 54.96875 -117.6875 C 55.082031 -120.394531 55.226562 -122.832031 55.40625 -125 C 55.582031 -127.175781 55.726562 -129.03125 55.84375 -130.5625 C 55.96875 -131.5 56.117188 -132.316406 56.296875 -133.015625 C 56.472656 -133.722656 56.617188 -134.367188 56.734375 -134.953125 C 56.960938 -135.898438 57.195312 -136.546875 57.4375 -136.890625 C 57.90625 -137.953125 58.671875 -138.660156 59.734375 -139.015625 C 60.671875 -139.484375 61.726562 -139.539062 62.90625 -139.1875 C 63.84375 -138.71875 64.601562 -138.015625 65.1875 -137.078125 C 65.894531 -135.316406 65.660156 -133.847656 64.484375 -132.671875 C 64.367188 -131.960938 64.191406 -130.90625 63.953125 -129.5 C 63.835938 -128.09375 63.691406 -126.390625 63.515625 -124.390625 C 63.335938 -122.390625 63.191406 -120.039062 63.078125 -117.34375 C 62.960938 -113.226562 62.875 -108.085938 62.8125 -101.921875 C 62.75 -95.753906 62.78125 -88.5625 62.90625 -80.34375 C 62.90625 -78.695312 62.90625 -76.757812 62.90625 -74.53125 C 62.90625 -72.300781 62.960938 -69.832031 63.078125 -67.125 C 63.191406 -61.019531 63.25 -55.878906 63.25 -51.703125 C 63.25 -47.535156 63.25 -44.394531 63.25 -42.28125 C 63.25 -38.289062 63.21875 -35.003906 63.15625 -32.421875 C 63.101562 -29.835938 63.019531 -27.898438 62.90625 -26.609375 C 62.90625 -26.484375 62.90625 -26.390625 62.90625 -26.328125 C 62.90625 -26.273438 62.90625 -26.191406 62.90625 -26.078125 C 62.78125 -25.609375 62.71875 -25.253906 62.71875 -25.015625 C 62.71875 -24.785156 62.71875 -24.609375 62.71875 -24.484375 C 62.601562 -24.015625 62.546875 -23.570312 62.546875 -23.15625 C 62.546875 -22.75 62.546875 -22.429688 62.546875 -22.203125 C 62.429688 -20.441406 62.078125 -19.03125 61.484375 -17.96875 C 61.128906 -17.03125 60.660156 -16.269531 60.078125 -15.6875 C 59.023438 -14.625 57.96875 -14.035156 56.90625 -13.921875 L 56.734375 -13.921875 C 55.085938 -13.679688 53.675781 -14.09375 52.5 -15.15625 C 52.269531 -15.382812 52.003906 -15.644531 51.703125 -15.9375 C 51.410156 -16.238281 51.148438 -16.625 50.921875 -17.09375 C 50.566406 -17.445312 50.332031 -17.738281 50.21875 -17.96875 C 50.21875 -18.320312 50.15625 -18.554688 50.03125 -18.671875 C 47.445312 -23.492188 44.976562 -28.664062 42.625 -34.1875 C 40.28125 -39.707031 38.113281 -45.519531 36.125 -51.625 C 34.59375 -56.550781 33.035156 -61.921875 31.453125 -67.734375 C 29.867188 -73.554688 28.3125 -79.753906 26.78125 -86.328125 C 26.3125 -88.554688 25.78125 -90.90625 25.1875 -93.375 C 24.601562 -95.84375 24.019531 -98.488281 23.4375 -101.3125 C 22.96875 -103.300781 22.4375 -105.765625 21.84375 -108.703125 L 21.671875 -109.234375 C 21.671875 -109.347656 21.671875 -109.523438 21.671875 -109.765625 C 21.671875 -110.003906 21.613281 -110.238281 21.5 -110.46875 C 21.375 -110.707031 21.3125 -110.941406 21.3125 -111.171875 C 21.3125 -111.410156 21.253906 -111.585938 21.140625 -111.703125 C 21.023438 -111.234375 20.96875 -110.703125 20.96875 -110.109375 C 20.96875 -109.523438 20.910156 -108.941406 20.796875 -108.359375 C 20.203125 -102.953125 19.640625 -96.898438 19.109375 -90.203125 C 18.585938 -83.515625 18.148438 -76.234375 17.796875 -68.359375 C 17.441406 -60.367188 17.175781 -52.847656 17 -45.796875 C 16.820312 -38.753906 16.789062 -32.125 16.90625 -25.90625 C 17.03125 -12.75 17.738281 -4.757812 19.03125 -1.9375 C 19.382812 -0.882812 19.382812 0.171875 19.03125 1.234375 C 18.4375 2.171875 17.671875 2.875 16.734375 3.34375 C 15.679688 3.695312 14.625 3.695312 13.5625 3.34375 C 12.507812 2.757812 11.804688 2 11.453125 1.0625 Z M 11.453125 1.0625 "/></g></g></g><g fill="#5e253a" fill-opacity="1"><g transform="translate(472.757435, 371.032141)"><g><path d="M 48.796875 -3.171875 C 44.453125 0.117188 39.171875 1.703125 32.953125 1.578125 C 26.722656 1.347656 21.492188 -0.351562 17.265625 -3.53125 C 12.210938 -7.40625 9.6875 -12.570312 9.6875 -19.03125 C 9.6875 -20.082031 10.097656 -21.019531 10.921875 -21.84375 C 11.859375 -22.550781 12.859375 -22.90625 13.921875 -22.90625 C 14.972656 -22.90625 15.910156 -22.550781 16.734375 -21.84375 C 17.441406 -21.019531 17.796875 -20.082031 17.796875 -19.03125 C 17.796875 -15.269531 19.265625 -12.273438 22.203125 -10.046875 C 25.015625 -7.929688 28.597656 -6.753906 32.953125 -6.515625 C 37.296875 -6.398438 40.9375 -7.457031 43.875 -9.6875 C 47.039062 -12.039062 48.679688 -15.210938 48.796875 -19.203125 C 49.035156 -20.140625 49.035156 -21.082031 48.796875 -22.03125 C 48.328125 -35.175781 45.21875 -47.097656 39.46875 -57.796875 C 38.875 -58.960938 38.078125 -60.304688 37.078125 -61.828125 C 36.085938 -63.359375 34.945312 -65.066406 33.65625 -66.953125 C 33.65625 -67.066406 32.535156 -68.769531 30.296875 -72.0625 C 29.128906 -73.707031 28.160156 -75.054688 27.390625 -76.109375 C 26.628906 -77.171875 26.132812 -77.9375 25.90625 -78.40625 C 23.664062 -81.8125 21.664062 -84.953125 19.90625 -87.828125 C 18.144531 -90.703125 16.617188 -93.316406 15.328125 -95.671875 C 10.515625 -105.066406 8.398438 -113.226562 8.984375 -120.15625 C 9.921875 -129.320312 15.03125 -136.253906 24.3125 -140.953125 C 32.882812 -145.296875 40.34375 -144.765625 46.6875 -139.359375 C 51.269531 -135.253906 54.617188 -129.148438 56.734375 -121.046875 C 57.085938 -119.984375 56.96875 -118.984375 56.375 -118.046875 C 55.789062 -116.984375 54.96875 -116.335938 53.90625 -116.109375 C 52.851562 -115.753906 51.859375 -115.867188 50.921875 -116.453125 C 49.859375 -117.046875 49.210938 -117.867188 48.984375 -118.921875 C 47.222656 -125.734375 44.695312 -130.492188 41.40625 -133.203125 C 37.757812 -136.367188 33.296875 -136.601562 28.015625 -133.90625 C 21.316406 -130.5 17.675781 -125.679688 17.09375 -119.453125 C 16.625 -114.171875 18.441406 -107.476562 22.546875 -99.375 C 24.898438 -94.789062 28.25 -89.328125 32.59375 -82.984375 C 32.832031 -82.515625 33.332031 -81.75 34.09375 -80.6875 C 34.851562 -79.632812 35.820312 -78.285156 37 -76.640625 C 39.226562 -73.347656 40.34375 -71.644531 40.34375 -71.53125 C 43.28125 -67.65625 45.394531 -64.367188 46.6875 -61.671875 C 49.738281 -55.910156 52.144531 -49.738281 53.90625 -43.15625 C 55.675781 -36.582031 56.675781 -29.65625 56.90625 -22.375 C 57.144531 -21.082031 57.144531 -19.910156 56.90625 -18.859375 C 56.550781 -12.273438 53.847656 -7.046875 48.796875 -3.171875 Z M 48.796875 -3.171875 "/></g></g></g><g fill="#5e253a" fill-opacity="1"><g transform="translate(538.648842, 371.032141)"><g><path d="M 15.15625 -2.8125 C 11.863281 -6.101562 9.863281 -14.738281 9.15625 -28.71875 C 8.925781 -34.238281 8.8125 -40.519531 8.8125 -47.5625 C 8.8125 -54.613281 9.046875 -62.3125 9.515625 -70.65625 C 9.867188 -78.050781 10.304688 -85.300781 10.828125 -92.40625 C 11.359375 -99.507812 12.035156 -106.46875 12.859375 -113.28125 C 14.390625 -126.789062 15.800781 -135.484375 17.09375 -139.359375 C 17.445312 -140.535156 18.148438 -141.359375 19.203125 -141.828125 C 20.023438 -142.296875 21.023438 -142.351562 22.203125 -142 C 23.140625 -141.65625 23.898438 -141.007812 24.484375 -140.0625 C 24.953125 -139.125 25.015625 -138.066406 24.671875 -136.890625 C 24.078125 -135.128906 23.457031 -132.132812 22.8125 -127.90625 C 22.164062 -123.675781 21.492188 -118.273438 20.796875 -111.703125 C 19.378906 -98.316406 18.320312 -84.515625 17.625 -70.296875 C 17.144531 -62.078125 16.90625 -54.53125 16.90625 -47.65625 C 16.90625 -40.789062 17.023438 -34.597656 17.265625 -29.078125 C 17.617188 -23.203125 18.148438 -18.382812 18.859375 -14.625 C 19.203125 -13.09375 19.550781 -11.625 19.90625 -10.21875 C 20.257812 -9.394531 20.554688 -8.867188 20.796875 -8.640625 C 21.617188 -7.816406 22.03125 -6.875 22.03125 -5.8125 C 22.03125 -4.757812 21.675781 -3.757812 20.96875 -2.8125 C 20.144531 -1.988281 19.144531 -1.578125 17.96875 -1.578125 C 16.789062 -1.578125 15.851562 -1.988281 15.15625 -2.8125 Z M 15.15625 -2.8125 "/></g></g></g><g fill="#5e253a" fill-opacity="1"><g transform="translate(572.299279, 371.032141)"><g><path d="M 24.484375 0.703125 C 23.191406 1.054688 21.960938 0.820312 20.796875 0 C 19.847656 0 19.023438 -0.351562 18.328125 -1.0625 C 17.617188 -1.644531 17.144531 -2.46875 16.90625 -3.53125 C 16.675781 -5.40625 16.265625 -7.867188 15.671875 -10.921875 C 15.085938 -13.972656 14.328125 -17.613281 13.390625 -21.84375 C 12.566406 -26.664062 11.863281 -30.367188 11.28125 -32.953125 C 10.457031 -37.296875 9.867188 -41.285156 9.515625 -44.921875 C 9.160156 -48.566406 8.984375 -51.914062 8.984375 -54.96875 C 8.984375 -59.90625 9.335938 -66.835938 10.046875 -75.765625 C 10.046875 -75.878906 10.046875 -75.992188 10.046875 -76.109375 C 10.046875 -76.234375 10.046875 -76.410156 10.046875 -76.640625 C 10.984375 -87.796875 11.332031 -96.195312 11.09375 -101.84375 C 10.863281 -104.539062 10.515625 -108.351562 10.046875 -113.28125 C 9.921875 -114.925781 9.742188 -116.160156 9.515625 -116.984375 C 8.578125 -125.328125 8.632812 -131.960938 9.6875 -136.890625 C 10.039062 -138.421875 10.984375 -139.421875 12.515625 -139.890625 C 13.335938 -141.066406 14.507812 -141.597656 16.03125 -141.484375 C 30.007812 -139.953125 41.519531 -132.253906 50.5625 -118.390625 C 58.4375 -106.054688 63.019531 -91.316406 64.3125 -74.171875 C 65.601562 -56.910156 63.078125 -41.640625 56.734375 -28.359375 C 49.566406 -13.097656 38.816406 -3.410156 24.484375 0.703125 Z M 24.484375 -7.75 C 35.296875 -11.625 43.640625 -19.671875 49.515625 -31.890625 C 55.148438 -44.109375 57.4375 -58.023438 56.375 -73.640625 C 55.082031 -89.503906 50.914062 -102.894531 43.875 -113.8125 C 36.707031 -124.738281 27.835938 -131.140625 17.265625 -133.015625 C 16.796875 -129.609375 16.914062 -124.5625 17.625 -117.875 C 17.851562 -117.050781 18.023438 -115.816406 18.140625 -114.171875 C 18.734375 -108.765625 19.085938 -104.710938 19.203125 -102.015625 C 19.441406 -96.140625 19.085938 -87.445312 18.140625 -75.9375 C 18.140625 -75.820312 18.140625 -75.703125 18.140625 -75.578125 C 18.140625 -75.460938 18.140625 -75.347656 18.140625 -75.234375 C 17.441406 -66.304688 17.09375 -59.550781 17.09375 -54.96875 C 17.09375 -49.332031 17.796875 -42.460938 19.203125 -34.359375 C 19.441406 -33.179688 19.734375 -31.648438 20.078125 -29.765625 C 20.429688 -27.890625 20.84375 -25.78125 21.3125 -23.4375 C 22.132812 -19.789062 22.8125 -16.644531 23.34375 -14 C 23.875 -11.363281 24.253906 -9.28125 24.484375 -7.75 Z M 24.484375 -7.75 "/></g></g></g><g fill="#5e253a" fill-opacity="1"><g transform="translate(645.766437, 371.032141)"><g><path d="M 15.328125 5.984375 C 13.679688 5.867188 12.15625 5.109375 10.75 3.703125 C 9.925781 2.878906 9.457031 1.820312 9.34375 0.53125 C 9.21875 0.0625 9.15625 -0.40625 9.15625 -0.875 C 9.15625 -1.34375 9.097656 -1.875 8.984375 -2.46875 C 8.867188 -3.644531 8.8125 -4.96875 8.8125 -6.4375 C 8.8125 -7.90625 8.8125 -9.578125 8.8125 -11.453125 C 8.570312 -18.148438 8.570312 -26.898438 8.8125 -37.703125 C 8.925781 -49.453125 9.097656 -58.847656 9.328125 -65.890625 C 9.566406 -72.941406 9.804688 -77.703125 10.046875 -80.171875 C 10.160156 -80.753906 10.21875 -81.835938 10.21875 -83.421875 C 10.21875 -85.003906 10.273438 -87.148438 10.390625 -89.859375 L 10.390625 -90.5625 C 10.515625 -90.914062 10.578125 -91.617188 10.578125 -92.671875 C 10.578125 -93.023438 10.578125 -93.4375 10.578125 -93.90625 C 10.578125 -94.375 10.632812 -94.84375 10.75 -95.3125 C 10.75 -95.78125 10.75 -96.28125 10.75 -96.8125 C 10.75 -97.34375 10.804688 -97.898438 10.921875 -98.484375 C 10.921875 -99.078125 10.921875 -99.632812 10.921875 -100.15625 C 10.921875 -100.6875 10.921875 -101.1875 10.921875 -101.65625 C 10.921875 -102.25 10.921875 -102.78125 10.921875 -103.25 C 10.921875 -103.71875 10.976562 -104.1875 11.09375 -104.65625 C 11.09375 -105.125 11.09375 -105.535156 11.09375 -105.890625 C 11.09375 -106.242188 11.09375 -106.535156 11.09375 -106.765625 C 11.445312 -114.753906 11.800781 -120.921875 12.15625 -125.265625 C 12.394531 -127.972656 12.570312 -130.085938 12.6875 -131.609375 C 12.800781 -132.078125 12.859375 -132.515625 12.859375 -132.921875 C 12.859375 -133.335938 12.914062 -133.664062 13.03125 -133.90625 C 13.15625 -134.132812 13.21875 -134.363281 13.21875 -134.59375 C 13.21875 -134.832031 13.273438 -135.015625 13.390625 -135.140625 C 13.628906 -135.492188 13.863281 -135.816406 14.09375 -136.109375 C 14.332031 -136.398438 14.566406 -136.660156 14.796875 -136.890625 C 15.617188 -137.710938 16.851562 -138.300781 18.5 -138.65625 C 19.789062 -138.894531 21.203125 -139.070312 22.734375 -139.1875 C 23.898438 -139.300781 25.304688 -139.390625 26.953125 -139.453125 C 28.597656 -139.515625 30.535156 -139.546875 32.765625 -139.546875 C 33.234375 -139.546875 33.847656 -139.546875 34.609375 -139.546875 C 35.378906 -139.546875 36.351562 -139.546875 37.53125 -139.546875 C 39.757812 -139.546875 41.609375 -139.546875 43.078125 -139.546875 C 44.546875 -139.546875 45.570312 -139.601562 46.15625 -139.71875 C 47.21875 -139.832031 48.21875 -139.535156 49.15625 -138.828125 C 49.863281 -138.128906 50.332031 -137.191406 50.5625 -136.015625 C 50.5625 -134.960938 50.210938 -133.960938 49.515625 -133.015625 C 48.921875 -132.316406 47.976562 -131.847656 46.6875 -131.609375 C 45.976562 -131.492188 44.859375 -131.4375 43.328125 -131.4375 C 41.804688 -131.4375 39.875 -131.4375 37.53125 -131.4375 C 36.46875 -131.4375 35.554688 -131.4375 34.796875 -131.4375 C 34.035156 -131.4375 33.359375 -131.4375 32.765625 -131.4375 C 30.773438 -131.4375 28.984375 -131.40625 27.390625 -131.34375 C 25.804688 -131.289062 24.425781 -131.203125 23.25 -131.078125 C 22.78125 -130.960938 22.335938 -130.90625 21.921875 -130.90625 C 21.515625 -130.90625 21.140625 -130.847656 20.796875 -130.734375 L 20.796875 -130.5625 C 20.554688 -129.03125 20.378906 -127.03125 20.265625 -124.5625 C 19.910156 -120.21875 19.554688 -114.171875 19.203125 -106.421875 C 19.203125 -105.953125 19.203125 -105.453125 19.203125 -104.921875 C 19.203125 -104.390625 19.203125 -103.769531 19.203125 -103.0625 C 19.085938 -102.363281 19.03125 -101.660156 19.03125 -100.953125 C 19.03125 -100.242188 19.03125 -99.539062 19.03125 -98.84375 C 18.914062 -98.019531 18.859375 -97.253906 18.859375 -96.546875 C 18.859375 -95.847656 18.859375 -95.144531 18.859375 -94.4375 C 18.734375 -93.726562 18.671875 -93.082031 18.671875 -92.5 C 18.671875 -91.914062 18.613281 -91.382812 18.5 -90.90625 L 18.5 -89.5 C 18.257812 -83.863281 18.082031 -80.457031 17.96875 -79.28125 C 17.851562 -77.757812 17.675781 -72.882812 17.4375 -64.65625 C 19.789062 -64.425781 23.609375 -64.425781 28.890625 -64.65625 C 30.535156 -64.78125 31.945312 -64.84375 33.125 -64.84375 C 34.300781 -64.84375 35.300781 -64.84375 36.125 -64.84375 C 37.175781 -64.84375 38.113281 -64.488281 38.9375 -63.78125 C 39.644531 -62.957031 40 -61.957031 40 -60.78125 C 40 -59.601562 39.644531 -58.664062 38.9375 -57.96875 C 38.113281 -57.144531 37.175781 -56.734375 36.125 -56.734375 C 35.300781 -56.734375 34.328125 -56.734375 33.203125 -56.734375 C 32.085938 -56.734375 30.710938 -56.675781 29.078125 -56.5625 C 23.671875 -56.4375 19.734375 -56.4375 17.265625 -56.5625 C 17.148438 -53.269531 17.0625 -50.035156 17 -46.859375 C 16.9375 -43.691406 16.90625 -40.582031 16.90625 -37.53125 C 16.789062 -26.84375 16.789062 -18.207031 16.90625 -11.625 C 16.90625 -9.75 16.90625 -8.101562 16.90625 -6.6875 C 16.90625 -5.28125 16.96875 -4.109375 17.09375 -3.171875 C 17.207031 -2.816406 17.265625 -2.460938 17.265625 -2.109375 L 17.4375 -2.109375 C 19.789062 -2.578125 22.140625 -2.898438 24.484375 -3.078125 C 26.835938 -3.253906 29.1875 -3.40625 31.53125 -3.53125 C 32.351562 -3.53125 33.410156 -3.53125 34.703125 -3.53125 C 35.992188 -3.53125 37.523438 -3.53125 39.296875 -3.53125 C 40.460938 -3.53125 41.484375 -3.53125 42.359375 -3.53125 C 43.242188 -3.53125 43.984375 -3.53125 44.578125 -3.53125 C 45.628906 -3.53125 46.566406 -3.117188 47.390625 -2.296875 C 48.210938 -1.472656 48.625 -0.472656 48.625 0.703125 C 48.625 1.765625 48.210938 2.707031 47.390625 3.53125 C 46.566406 4.226562 45.628906 4.578125 44.578125 4.578125 C 43.867188 4.578125 43.070312 4.578125 42.1875 4.578125 C 41.3125 4.578125 40.285156 4.578125 39.109375 4.578125 C 37.460938 4.578125 36.023438 4.578125 34.796875 4.578125 C 33.566406 4.578125 32.539062 4.578125 31.71875 4.578125 C 29.601562 4.691406 27.488281 4.835938 25.375 5.015625 C 23.257812 5.191406 21.144531 5.457031 19.03125 5.8125 C 18.4375 5.925781 17.816406 6.015625 17.171875 6.078125 C 16.523438 6.140625 15.910156 6.109375 15.328125 5.984375 Z M 15.328125 5.984375 "/></g></g></g></g></g></svg>