<svg xmlns="http://www.w3.org/2000/svg" xmlns:xlink="http://www.w3.org/1999/xlink" width="2040" zoomAndPan="magnify" viewBox="0 0 1530 1529.999932" height="2040" preserveAspectRatio="xMidYMid meet" version="1.0"><defs><g/><clipPath id="cfe5b028c8"><path d="M 515.046875 2 L 602.753906 2 L 602.753906 527 L 515.046875 527 Z M 515.046875 2 " clip-rule="nonzero"/></clipPath><clipPath id="132b7465d8"><path d="M 0.398438 565 L 1117.601562 565 L 1117.601562 1222.878906 L 0.398438 1222.878906 Z M 0.398438 565 " clip-rule="nonzero"/></clipPath><clipPath id="4f3e23b893"><rect x="0" width="1118" y="0" height="658"/></clipPath><clipPath id="0fd65d76a8"><rect x="0" width="1118" y="0" height="1223"/></clipPath></defs><g transform="matrix(1, 0, 0, 1, 206, 154)"><g clip-path="url(#0fd65d76a8)"><g clip-path="url(#cfe5b028c8)"><path fill="#5e253a" d="M 558.996094 2.128906 L 515.15625 78.03125 L 551.480469 78.03125 L 558.996094 526.847656 L 566.511719 78.03125 L 602.835938 78.03125 Z M 558.996094 2.128906 " fill-opacity="1" fill-rule="nonzero"/></g><g clip-path="url(#132b7465d8)"><g transform="matrix(1, 0, 0, 1, 0, 565)"><g clip-path="url(#4f3e23b893)"><g fill="#5e253a" fill-opacity="1"><g transform="translate(126.893996, 265.115385)"><g><path d="M 58.109375 -0.84375 C 46.378906 -2.519531 36.878906 -9.222656 29.609375 -20.953125 C 23.460938 -30.828125 19.085938 -43.773438 16.484375 -59.796875 C 11.828125 -89.410156 13.410156 -121.820312 21.234375 -157.03125 C 23.097656 -165.59375 25.238281 -173.550781 27.65625 -180.90625 C 30.082031 -188.269531 32.785156 -194.929688 35.765625 -200.890625 C 41.535156 -212.816406 48.054688 -221.109375 55.328125 -225.765625 C 65.015625 -231.535156 74.695312 -230.972656 84.375 -224.078125 C 93.320312 -217.191406 101.707031 -204.34375 109.53125 -185.53125 C 110.269531 -184.039062 110.363281 -182.363281 109.8125 -180.5 C 108.875 -178.820312 107.660156 -177.703125 106.171875 -177.140625 C 104.492188 -176.210938 102.910156 -176.210938 101.421875 -177.140625 C 99.929688 -177.703125 98.722656 -178.820312 97.796875 -180.5 C 90.898438 -197.257812 83.820312 -208.34375 76.5625 -213.75 C 71.71875 -217.46875 66.96875 -217.835938 62.3125 -214.859375 C 56.53125 -211.140625 51.21875 -203.96875 46.375 -193.34375 C 41.53125 -182.726562 37.25 -169.691406 33.53125 -154.234375 C 26.257812 -120.890625 24.863281 -90.0625 29.34375 -61.75 C 31.570312 -47.03125 35.296875 -35.757812 40.515625 -27.9375 C 45.910156 -19.5625 52.429688 -14.8125 60.078125 -13.6875 C 69.941406 -12.195312 77.203125 -14.617188 81.859375 -20.953125 C 85.773438 -26.359375 88.851562 -35.019531 91.09375 -46.9375 C 91.269531 -47.875 91.5 -48.945312 91.78125 -50.15625 C 92.0625 -51.363281 92.296875 -52.617188 92.484375 -53.921875 C 92.484375 -54.296875 92.484375 -54.671875 92.484375 -55.046875 C 92.484375 -55.421875 92.578125 -55.882812 92.765625 -56.4375 C 92.953125 -56.8125 93.046875 -57.273438 93.046875 -57.828125 C 93.046875 -58.390625 93.140625 -58.859375 93.328125 -59.234375 L 93.59375 -60.90625 C 93.78125 -62.207031 93.96875 -63.414062 94.15625 -64.53125 C 94.34375 -65.65625 94.53125 -66.679688 94.71875 -67.609375 C 95.09375 -69.285156 95.929688 -70.6875 97.234375 -71.8125 C 98.722656 -72.738281 100.398438 -73.015625 102.265625 -72.640625 C 104.128906 -72.273438 105.429688 -71.4375 106.171875 -70.125 C 107.109375 -68.445312 107.484375 -66.773438 107.296875 -65.109375 C 107.109375 -64.359375 106.921875 -63.46875 106.734375 -62.4375 C 106.546875 -61.414062 106.359375 -60.253906 106.171875 -58.953125 L 105.890625 -57.5625 C 105.703125 -57 105.609375 -56.4375 105.609375 -55.875 C 105.609375 -55.320312 105.609375 -54.765625 105.609375 -54.203125 C 105.429688 -53.640625 105.34375 -53.171875 105.34375 -52.796875 C 105.34375 -52.429688 105.25 -52.15625 105.0625 -51.96875 C 104.875 -50.664062 104.6875 -49.363281 104.5 -48.0625 C 104.3125 -46.757812 104.125 -45.640625 103.9375 -44.703125 C 102.632812 -37.628906 100.957031 -31.484375 98.90625 -26.265625 C 96.863281 -21.046875 94.535156 -16.664062 91.921875 -13.125 C 84.097656 -2.695312 72.828125 1.394531 58.109375 -0.84375 Z M 58.109375 -0.84375 "/></g></g></g><g fill="#5e253a" fill-opacity="1"><g transform="translate(250.94698, 265.115385)"><g><path d="M 31.859375 0.5625 C 25.890625 -0.1875 21.320312 -1.863281 18.15625 -4.46875 C 16.851562 -5.769531 15.925781 -7.445312 15.375 -9.5 C 15.1875 -10.25 15.046875 -10.992188 14.953125 -11.734375 C 14.859375 -12.484375 14.71875 -13.320312 14.53125 -14.25 C 14.34375 -15.738281 14.203125 -17.550781 14.109375 -19.6875 C 14.015625 -21.832031 13.96875 -24.210938 13.96875 -26.828125 C 13.96875 -31.109375 14.109375 -36.039062 14.390625 -41.625 C 14.671875 -47.21875 15 -53.550781 15.375 -60.625 C 15.550781 -63.238281 15.734375 -65.988281 15.921875 -68.875 C 16.109375 -71.757812 16.296875 -74.691406 16.484375 -77.671875 C 16.671875 -78.421875 16.953125 -81.679688 17.328125 -87.453125 C 17.515625 -90.242188 17.695312 -92.941406 17.875 -95.546875 C 18.0625 -98.160156 18.25 -100.675781 18.4375 -103.09375 C 18.625 -105.519531 18.765625 -107.382812 18.859375 -108.6875 C 18.953125 -109.988281 19 -110.734375 19 -110.921875 C 19.375 -117.441406 19.375 -127.78125 19 -141.9375 C 19 -146.21875 19 -150.035156 19 -153.390625 C 19 -156.742188 19 -159.539062 19 -161.78125 C 19 -187.851562 21.046875 -208.25 25.140625 -222.96875 C 25.515625 -224.644531 26.539062 -225.945312 28.21875 -226.875 C 29.332031 -227.625 30.914062 -227.8125 32.96875 -227.4375 C 34.644531 -226.875 35.945312 -225.847656 36.875 -224.359375 C 37.8125 -222.867188 38 -221.285156 37.4375 -219.609375 C 33.71875 -205.265625 31.859375 -185.988281 31.859375 -161.78125 C 31.859375 -159.539062 31.859375 -156.742188 31.859375 -153.390625 C 31.859375 -150.035156 31.859375 -146.21875 31.859375 -141.9375 C 32.222656 -127.59375 32.222656 -117.066406 31.859375 -110.359375 C 31.859375 -110.179688 31.8125 -109.390625 31.71875 -107.984375 C 31.625 -106.585938 31.484375 -104.679688 31.296875 -102.265625 C 31.109375 -99.835938 30.921875 -97.273438 30.734375 -94.578125 C 30.546875 -91.878906 30.359375 -89.132812 30.171875 -86.34375 C 29.984375 -80.5625 29.707031 -77.394531 29.34375 -76.84375 C 29.15625 -73.851562 28.96875 -70.914062 28.78125 -68.03125 C 28.59375 -65.144531 28.40625 -62.398438 28.21875 -59.796875 C 27.84375 -52.898438 27.515625 -46.703125 27.234375 -41.203125 C 26.960938 -35.710938 26.828125 -30.921875 26.828125 -26.828125 C 26.828125 -24.398438 26.875 -22.253906 26.96875 -20.390625 C 27.0625 -18.535156 27.195312 -16.953125 27.375 -15.640625 C 27.375 -14.710938 27.46875 -14.0625 27.65625 -13.6875 C 27.84375 -13.5 27.984375 -13.40625 28.078125 -13.40625 C 28.171875 -13.40625 28.3125 -13.3125 28.5 -13.125 C 29.238281 -12.945312 29.984375 -12.8125 30.734375 -12.71875 C 31.484375 -12.625 32.320312 -12.484375 33.25 -12.296875 C 36.976562 -12.109375 41.445312 -12.109375 46.65625 -12.296875 C 51.875 -12.671875 56.390625 -13.179688 60.203125 -13.828125 C 64.023438 -14.484375 67.148438 -15.273438 69.578125 -16.203125 C 71.253906 -17.140625 72.925781 -17.140625 74.59375 -16.203125 C 76.269531 -15.460938 77.484375 -14.253906 78.234375 -12.578125 C 78.796875 -10.710938 78.703125 -9.128906 77.953125 -7.828125 C 77.210938 -6.335938 76.09375 -5.125 74.59375 -4.1875 C 71.613281 -2.882812 67.84375 -1.859375 63.28125 -1.109375 C 58.71875 -0.367188 53.457031 0.1875 47.5 0.5625 C 41.539062 1.113281 36.328125 1.113281 31.859375 0.5625 Z M 31.859375 0.5625 "/></g></g></g><g fill="#5e253a" fill-opacity="1"><g transform="translate(343.427886, 265.115385)"><g><path d="M 24.03125 -4.46875 C 18.8125 -9.6875 15.644531 -23.378906 14.53125 -45.546875 C 14.15625 -54.296875 13.96875 -64.257812 13.96875 -75.4375 C 13.96875 -86.613281 14.34375 -98.816406 15.09375 -112.046875 C 15.644531 -123.773438 16.335938 -135.273438 17.171875 -146.546875 C 18.015625 -157.816406 19.085938 -168.851562 20.390625 -179.65625 C 22.816406 -201.082031 25.054688 -214.867188 27.109375 -221.015625 C 27.660156 -222.867188 28.773438 -224.171875 30.453125 -224.921875 C 31.753906 -225.671875 33.335938 -225.765625 35.203125 -225.203125 C 36.691406 -224.640625 37.90625 -223.613281 38.84375 -222.125 C 39.582031 -220.632812 39.671875 -218.957031 39.109375 -217.09375 C 38.179688 -214.300781 37.203125 -209.550781 36.171875 -202.84375 C 35.148438 -196.144531 34.082031 -187.578125 32.96875 -177.140625 C 30.726562 -155.910156 29.050781 -134.023438 27.9375 -111.484375 C 27.195312 -98.441406 26.828125 -86.472656 26.828125 -75.578125 C 26.828125 -64.679688 27.007812 -54.859375 27.375 -46.109375 C 27.9375 -36.785156 28.773438 -29.144531 29.890625 -23.1875 C 30.453125 -20.769531 31.015625 -18.441406 31.578125 -16.203125 C 32.128906 -14.898438 32.59375 -14.0625 32.96875 -13.6875 C 34.269531 -12.382812 34.921875 -10.894531 34.921875 -9.21875 C 34.921875 -7.539062 34.363281 -5.957031 33.25 -4.46875 C 31.945312 -3.164062 30.363281 -2.515625 28.5 -2.515625 C 26.632812 -2.515625 25.144531 -3.164062 24.03125 -4.46875 Z M 24.03125 -4.46875 "/></g></g></g><g fill="#5e253a" fill-opacity="1"><g transform="translate(396.793032, 265.115385)"><g><path d="M 74.046875 2.515625 C 65.285156 6.796875 56.804688 5.398438 48.609375 -1.671875 C 35.578125 -12.660156 25.894531 -34.640625 19.5625 -67.609375 C 16.394531 -83.816406 14.578125 -99.554688 14.109375 -114.828125 C 13.640625 -130.109375 14.429688 -144.828125 16.484375 -158.984375 C 21.890625 -193.066406 34 -214.394531 52.8125 -222.96875 C 61.9375 -227.0625 70.035156 -226.128906 77.109375 -220.171875 C 81.953125 -216.078125 85.398438 -209.554688 87.453125 -200.609375 C 87.828125 -198.929688 87.546875 -197.347656 86.609375 -195.859375 C 85.679688 -194.179688 84.378906 -193.25 82.703125 -193.0625 C 80.835938 -192.882812 79.160156 -193.164062 77.671875 -193.90625 C 75.992188 -194.84375 75.0625 -196.144531 74.875 -197.8125 C 74.132812 -200.800781 73.25 -203.363281 72.21875 -205.5 C 71.195312 -207.644531 69.941406 -209.367188 68.453125 -210.671875 C 65.847656 -213.085938 62.398438 -213.273438 58.109375 -211.234375 C 43.585938 -204.710938 33.90625 -186.644531 29.0625 -157.03125 C 24.957031 -130.207031 25.976562 -101.238281 32.125 -70.125 C 34.925781 -55.96875 38.5625 -43.675781 43.03125 -33.25 C 47.125 -23.1875 51.6875 -15.921875 56.71875 -11.453125 C 60.8125 -8.097656 64.628906 -7.351562 68.171875 -9.21875 C 73.578125 -11.644531 79.257812 -19.003906 85.21875 -31.296875 C 86.707031 -33.898438 87.546875 -36.878906 87.734375 -40.234375 C 87.921875 -40.984375 88.015625 -41.960938 88.015625 -43.171875 C 88.015625 -44.378906 88.109375 -45.726562 88.296875 -47.21875 C 88.484375 -50.757812 88.757812 -53.367188 89.125 -55.046875 C 89.5 -58.398438 90.0625 -61.285156 90.8125 -63.703125 C 91.363281 -65.566406 92.476562 -66.867188 94.15625 -67.609375 C 95.457031 -68.359375 97.039062 -68.453125 98.90625 -67.890625 C 100.582031 -67.335938 101.890625 -66.316406 102.828125 -64.828125 C 103.566406 -63.335938 103.65625 -61.660156 103.09375 -59.796875 C 102.726562 -58.492188 102.359375 -56.722656 101.984375 -54.484375 C 101.609375 -52.242188 101.328125 -49.632812 101.140625 -46.65625 C 100.953125 -44.789062 100.859375 -43.207031 100.859375 -41.90625 C 100.859375 -40.601562 100.769531 -39.488281 100.59375 -38.5625 C 100.40625 -36.132812 99.984375 -33.847656 99.328125 -31.703125 C 98.671875 -29.566406 97.878906 -27.566406 96.953125 -25.703125 C 93.410156 -18.253906 89.726562 -12.203125 85.90625 -7.546875 C 82.09375 -2.890625 78.140625 0.460938 74.046875 2.515625 Z M 74.046875 2.515625 "/></g></g></g><g fill="#5e253a" fill-opacity="1"><g transform="translate(514.140478, 265.115385)"><g><path d="M 78.234375 0.5625 C 73.765625 -1.675781 68.921875 -8.476562 63.703125 -19.84375 C 61.648438 -24.3125 59.550781 -29.335938 57.40625 -34.921875 C 55.269531 -40.515625 53.085938 -46.753906 50.859375 -53.640625 C 44.703125 -71.898438 40.226562 -87.640625 37.4375 -100.859375 C 35.945312 -98.816406 34.410156 -96.863281 32.828125 -95 C 31.242188 -93.132812 29.707031 -91.363281 28.21875 -89.6875 C 28.03125 -89.5 27.84375 -89.359375 27.65625 -89.265625 C 27.46875 -89.171875 27.285156 -89.03125 27.109375 -88.84375 C 26.921875 -83.632812 26.78125 -78.5625 26.6875 -73.625 C 26.59375 -68.6875 26.640625 -64.078125 26.828125 -59.796875 C 27.015625 -58.304688 27.195312 -56.300781 27.375 -53.78125 C 27.5625 -51.269531 27.84375 -48.335938 28.21875 -44.984375 C 28.40625 -43.679688 28.546875 -42.515625 28.640625 -41.484375 C 28.734375 -40.460938 28.78125 -39.582031 28.78125 -38.84375 C 29.894531 -29.894531 29.988281 -22.253906 29.0625 -15.921875 C 29.0625 -15.554688 28.96875 -15.09375 28.78125 -14.53125 C 28.59375 -13.96875 28.5 -13.5 28.5 -13.125 C 28.3125 -12.570312 28.21875 -11.828125 28.21875 -10.890625 C 28.21875 -10.710938 28.21875 -10.625 28.21875 -10.625 C 28.21875 -10.625 28.21875 -10.53125 28.21875 -10.34375 C 28.78125 -9.78125 29.242188 -8.660156 29.609375 -6.984375 C 29.796875 -5.304688 29.519531 -3.816406 28.78125 -2.515625 C 27.476562 -0.835938 25.988281 0.09375 24.3125 0.28125 C 21.519531 0.84375 19.191406 0.00390625 17.328125 -2.234375 C 16.203125 -3.722656 15.550781 -5.117188 15.375 -6.421875 C 15.1875 -8.097656 15.1875 -10.054688 15.375 -12.296875 C 15.550781 -12.671875 15.640625 -13.132812 15.640625 -13.6875 C 15.640625 -14.25 15.734375 -14.71875 15.921875 -15.09375 C 15.921875 -15.28125 15.921875 -15.460938 15.921875 -15.640625 C 15.921875 -15.828125 15.921875 -16.015625 15.921875 -16.203125 C 15.921875 -16.390625 15.921875 -16.578125 15.921875 -16.765625 C 15.921875 -16.953125 15.921875 -17.140625 15.921875 -17.328125 L 16.203125 -17.609375 C 17.140625 -22.628906 17.140625 -29.332031 16.203125 -37.71875 C 16.015625 -39.207031 15.738281 -41.164062 15.375 -43.59375 C 15 -47.125 14.71875 -50.191406 14.53125 -52.796875 C 14.34375 -55.410156 14.15625 -57.648438 13.96875 -59.515625 C 13.59375 -72.179688 14.148438 -89.875 15.640625 -112.59375 C 15.828125 -113.15625 15.921875 -114.460938 15.921875 -116.515625 C 16.671875 -125.078125 17.179688 -132.570312 17.453125 -139 C 17.734375 -145.425781 17.96875 -150.785156 18.15625 -155.078125 C 18.15625 -157.492188 18.109375 -160.191406 18.015625 -163.171875 C 17.921875 -166.148438 17.785156 -169.503906 17.609375 -173.234375 C 17.609375 -173.609375 17.609375 -174.023438 17.609375 -174.484375 C 17.609375 -174.953125 17.609375 -175.5625 17.609375 -176.3125 C 17.421875 -181.519531 17.28125 -186.03125 17.1875 -189.84375 C 17.09375 -193.664062 17.046875 -196.789062 17.046875 -199.21875 C 17.234375 -203.5 17.554688 -207.59375 18.015625 -211.5 C 18.484375 -215.414062 19.09375 -219.144531 19.84375 -222.6875 C 20.03125 -224.363281 20.957031 -225.664062 22.625 -226.59375 C 24.113281 -227.53125 25.789062 -227.8125 27.65625 -227.4375 C 29.332031 -227.25 30.640625 -226.316406 31.578125 -224.640625 C 32.503906 -223.335938 32.78125 -221.660156 32.40625 -219.609375 C 31.101562 -213.835938 30.265625 -206.945312 29.890625 -198.9375 C 29.890625 -196.519531 29.9375 -193.445312 30.03125 -189.71875 C 30.125 -185.988281 30.265625 -181.703125 30.453125 -176.859375 C 30.453125 -176.117188 30.453125 -175.515625 30.453125 -175.046875 C 30.453125 -174.578125 30.453125 -174.160156 30.453125 -173.796875 C 30.640625 -169.878906 30.78125 -166.382812 30.875 -163.3125 C 30.96875 -160.238281 30.921875 -157.492188 30.734375 -155.078125 C 30.734375 -150.597656 30.59375 -145.097656 30.3125 -138.578125 C 30.03125 -132.066406 29.519531 -124.429688 28.78125 -115.671875 C 28.78125 -113.441406 28.6875 -112.046875 28.5 -111.484375 C 28.5 -111.296875 28.5 -111.15625 28.5 -111.0625 C 28.5 -110.96875 28.5 -110.828125 28.5 -110.640625 C 29.800781 -112.691406 31.101562 -114.785156 32.40625 -116.921875 C 33.707031 -119.066406 35.015625 -121.351562 36.328125 -123.78125 C 38.179688 -127.132812 40.226562 -131.414062 42.46875 -136.625 C 44.707031 -141.84375 47.316406 -147.898438 50.296875 -154.796875 C 50.484375 -154.984375 50.578125 -155.164062 50.578125 -155.34375 L 50.859375 -155.90625 C 51.035156 -156.09375 51.125 -156.28125 51.125 -156.46875 C 51.125 -156.65625 51.21875 -156.84375 51.40625 -157.03125 C 58.300781 -173.414062 63.984375 -185.613281 68.453125 -193.625 C 72.179688 -200.144531 76.09375 -206.007812 80.1875 -211.21875 C 84.289062 -216.4375 88.671875 -220.910156 93.328125 -224.640625 C 94.816406 -225.753906 96.488281 -226.3125 98.34375 -226.3125 C 100.207031 -225.945312 101.609375 -225.203125 102.546875 -224.078125 C 103.660156 -222.585938 104.125 -221.003906 103.9375 -219.328125 C 103.5625 -217.285156 102.816406 -215.796875 101.703125 -214.859375 C 93.691406 -208.335938 86.332031 -199.117188 79.625 -187.203125 C 77.582031 -183.472656 75.160156 -178.675781 72.359375 -172.8125 C 69.566406 -166.945312 66.492188 -160.007812 63.140625 -152 C 63.140625 -152 62.957031 -151.625 62.59375 -150.875 L 62.59375 -150.59375 L 62.3125 -149.765625 C 59.332031 -142.679688 56.628906 -136.484375 54.203125 -131.171875 C 51.785156 -125.867188 49.644531 -121.445312 47.78125 -117.90625 C 47.59375 -117.71875 47.5 -117.53125 47.5 -117.34375 C 48.0625 -116.226562 48.34375 -115.113281 48.34375 -114 C 48.519531 -112.132812 48.984375 -109.335938 49.734375 -105.609375 C 50.484375 -101.890625 51.507812 -97.328125 52.8125 -91.921875 C 55.601562 -80.742188 58.953125 -69.289062 62.859375 -57.5625 C 65.097656 -51.039062 67.285156 -45.078125 69.421875 -39.671875 C 71.566406 -34.273438 73.570312 -29.429688 75.4375 -25.140625 C 77.300781 -20.859375 79.164062 -17.320312 81.03125 -14.53125 C 81.957031 -13.226562 82.703125 -12.203125 83.265625 -11.453125 L 83.828125 -10.890625 C 85.503906 -9.960938 86.617188 -8.753906 87.171875 -7.265625 C 87.734375 -5.398438 87.640625 -3.816406 86.890625 -2.515625 C 86.148438 -0.835938 84.847656 0.28125 82.984375 0.84375 C 81.117188 1.394531 79.535156 1.300781 78.234375 0.5625 Z M 78.234375 0.5625 "/></g></g></g><g fill="#5e253a" fill-opacity="1"><g transform="translate(632.046649, 265.115385)"><g/></g></g><g fill="#5e253a" fill-opacity="1"><g transform="translate(743.806106, 265.115385)"><g><path d="M 51.96875 8.109375 C 50.664062 7.734375 49.363281 6.988281 48.0625 5.875 C 46.9375 4.375 46.375 2.972656 46.375 1.671875 C 46.375 1.304688 46.46875 1.03125 46.65625 0.84375 C 46.65625 -0.09375 46.75 -0.835938 46.9375 -1.390625 C 46.75 -1.578125 46.65625 -1.859375 46.65625 -2.234375 L 46.65625 -2.796875 C 46.65625 -3.535156 46.75 -4 46.9375 -4.1875 C 46.9375 -4.75 47.03125 -5.125 47.21875 -5.3125 C 47.21875 -5.5 47.21875 -5.59375 47.21875 -5.59375 C 47.21875 -5.59375 47.21875 -5.6875 47.21875 -5.875 C 47.59375 -9.21875 47.78125 -13.171875 47.78125 -17.734375 C 47.78125 -22.304688 47.6875 -27.476562 47.5 -33.25 C 47.3125 -37.34375 47.078125 -43.488281 46.796875 -51.6875 C 46.515625 -59.882812 46.097656 -70.222656 45.546875 -82.703125 C 44.796875 -101.703125 44.234375 -117.160156 43.859375 -129.078125 C 43.117188 -160.003906 43.679688 -185.25 45.546875 -204.8125 L 44.703125 -204.8125 C 39.304688 -204.8125 34.554688 -204.8125 30.453125 -204.8125 C 26.359375 -204.8125 23.003906 -204.898438 20.390625 -205.078125 C 18.710938 -205.078125 17.222656 -205.734375 15.921875 -207.046875 C 14.617188 -208.347656 14.0625 -209.929688 14.25 -211.796875 C 14.25 -213.460938 14.898438 -214.953125 16.203125 -216.265625 C 17.691406 -217.378906 19.179688 -217.9375 20.671875 -217.9375 C 23.285156 -217.75 26.640625 -217.65625 30.734375 -217.65625 C 34.828125 -217.65625 39.484375 -217.65625 44.703125 -217.65625 C 47.679688 -217.65625 50.242188 -217.65625 52.390625 -217.65625 C 54.535156 -217.65625 56.257812 -217.5625 57.5625 -217.375 C 65.570312 -217.375 72.878906 -217.234375 79.484375 -216.953125 C 86.097656 -216.679688 92.109375 -216.171875 97.515625 -215.421875 C 99.378906 -215.046875 100.773438 -214.300781 101.703125 -213.1875 C 102.816406 -211.695312 103.28125 -210.113281 103.09375 -208.4375 C 102.726562 -206.382812 101.984375 -204.894531 100.859375 -203.96875 C 99.367188 -202.851562 97.785156 -202.382812 96.109375 -202.5625 C 90.898438 -203.3125 85.175781 -203.828125 78.9375 -204.109375 C 72.695312 -204.390625 65.847656 -204.53125 58.390625 -204.53125 C 56.535156 -185.34375 55.976562 -160.378906 56.71875 -129.640625 C 56.90625 -118.097656 57.460938 -102.640625 58.390625 -83.265625 C 58.953125 -70.785156 59.375 -60.398438 59.65625 -52.109375 C 59.9375 -43.816406 60.171875 -37.53125 60.359375 -33.25 C 60.535156 -30.644531 60.625 -28.082031 60.625 -25.5625 C 60.625 -23.050781 60.625 -20.675781 60.625 -18.4375 L 60.90625 -17.875 C 61.28125 -16.757812 61.46875 -16.203125 61.46875 -16.203125 C 61.65625 -16.015625 61.75 -15.644531 61.75 -15.09375 L 61.75 -14.53125 C 61.375 -13.59375 60.535156 -7.910156 59.234375 2.515625 C 58.859375 4.378906 58.207031 5.773438 57.28125 6.703125 C 55.789062 7.640625 54.394531 8.109375 53.09375 8.109375 C 52.90625 8.109375 52.71875 8.109375 52.53125 8.109375 C 52.34375 8.109375 52.15625 8.109375 51.96875 8.109375 Z M 51.96875 8.109375 "/></g></g></g><g fill="#5e253a" fill-opacity="1"><g transform="translate(860.874084, 265.115385)"><g><path d="M 54.484375 -12.578125 C 41.441406 -21.140625 31.566406 -33.0625 24.859375 -48.34375 C 17.972656 -63.425781 14.34375 -80.75 13.96875 -100.3125 C 13.78125 -117.257812 16.015625 -134.113281 20.671875 -150.875 C 25.515625 -167.832031 32.035156 -181.988281 40.234375 -193.34375 C 45.078125 -200.425781 49.546875 -205.457031 53.640625 -208.4375 C 60.160156 -213.84375 67.332031 -216.078125 75.15625 -215.140625 C 76.832031 -214.953125 78.226562 -214.113281 79.34375 -212.625 C 80.46875 -211.132812 80.9375 -209.550781 80.75 -207.875 C 80.75 -207.6875 80.65625 -207.59375 80.46875 -207.59375 C 81.957031 -207.40625 83.078125 -206.847656 83.828125 -205.921875 C 95.367188 -195.679688 104.03125 -177.519531 109.8125 -151.4375 C 115.207031 -127.59375 117.160156 -103.191406 115.671875 -78.234375 C 114.179688 -51.222656 109.0625 -31.476562 100.3125 -19 C 94.71875 -10.988281 88.007812 -6.425781 80.1875 -5.3125 C 72.363281 -4.1875 63.796875 -6.609375 54.484375 -12.578125 Z M 78.515625 -17.875 C 82.609375 -18.625 86.332031 -21.421875 89.6875 -26.265625 C 97.320312 -37.253906 101.789062 -54.765625 103.09375 -78.796875 C 104.59375 -102.640625 102.640625 -125.828125 97.234375 -148.359375 C 92.015625 -171.460938 84.65625 -187.484375 75.15625 -196.421875 C 73.289062 -198.097656 72.640625 -200.054688 73.203125 -202.296875 C 68.734375 -202.660156 64.820312 -201.351562 61.46875 -198.375 C 58.488281 -195.957031 54.859375 -191.769531 50.578125 -185.8125 C 42.929688 -175.1875 37.0625 -162.238281 32.96875 -146.96875 C 30.914062 -139.332031 29.332031 -131.601562 28.21875 -123.78125 C 27.101562 -115.957031 26.640625 -108.132812 26.828125 -100.3125 C 27.191406 -82.800781 30.265625 -67.523438 36.046875 -54.484375 C 41.816406 -41.441406 50.289062 -31.007812 61.46875 -23.1875 C 68.175781 -18.90625 73.859375 -17.132812 78.515625 -17.875 Z M 78.515625 -17.875 "/></g></g></g><g fill="#5e253a" fill-opacity="1"><g transform="translate(0.614762, 588.219043)"><g><path d="M 29.890625 5.875 C 28.398438 5.6875 27.003906 4.9375 25.703125 3.625 C 21.796875 -1.394531 18.816406 -15.550781 16.765625 -38.84375 C 16.015625 -47.59375 15.453125 -57.832031 15.078125 -69.5625 C 14.710938 -81.300781 14.34375 -94.4375 13.96875 -108.96875 C 13.78125 -119.769531 13.734375 -131.691406 13.828125 -144.734375 C 13.921875 -157.773438 14.0625 -172.023438 14.25 -187.484375 C 14.25 -188.222656 14.25 -189.335938 14.25 -190.828125 C 14.25 -192.316406 14.25 -194.273438 14.25 -196.703125 C 14.25 -198.941406 14.25 -200.664062 14.25 -201.875 C 14.25 -203.082031 14.25 -203.78125 14.25 -203.96875 C 14.25 -206.570312 14.25 -208.757812 14.25 -210.53125 C 14.25 -212.300781 14.25 -213.648438 14.25 -214.578125 C 14.25 -216.441406 14.898438 -218.023438 16.203125 -219.328125 C 17.691406 -220.453125 19.273438 -221.015625 20.953125 -221.015625 C 22.628906 -221.015625 24.117188 -220.453125 25.421875 -219.328125 C 26.546875 -218.023438 27.109375 -216.441406 27.109375 -214.578125 C 27.109375 -213.648438 27.109375 -212.253906 27.109375 -210.390625 C 27.109375 -208.523438 27.109375 -206.289062 27.109375 -203.6875 C 27.109375 -203.5 27.109375 -202.847656 27.109375 -201.734375 C 27.109375 -200.617188 27.109375 -198.847656 27.109375 -196.421875 C 27.109375 -194.003906 27.109375 -192.046875 27.109375 -190.546875 C 27.109375 -189.054688 27.109375 -187.941406 27.109375 -187.203125 C 26.921875 -171.929688 26.78125 -157.773438 26.6875 -144.734375 C 26.59375 -131.691406 26.640625 -119.769531 26.828125 -108.96875 C 27.015625 -94.8125 27.335938 -81.957031 27.796875 -70.40625 C 28.265625 -58.863281 28.867188 -48.710938 29.609375 -39.953125 C 29.984375 -34.734375 30.40625 -30.125 30.875 -26.125 C 31.34375 -22.125 31.945312 -18.539062 32.6875 -15.375 C 33.25 -12.382812 33.804688 -9.867188 34.359375 -7.828125 C 34.734375 -8.015625 35.0625 -8.109375 35.34375 -8.109375 C 35.625 -8.109375 35.859375 -8.195312 36.046875 -8.375 C 36.234375 -8.5625 36.507812 -8.65625 36.875 -8.65625 L 38.5625 -9.5 C 39.863281 -9.875 40.609375 -10.15625 40.796875 -10.34375 C 41.535156 -10.707031 42.1875 -10.984375 42.75 -11.171875 C 43.3125 -11.359375 43.773438 -11.546875 44.140625 -11.734375 C 45.265625 -11.921875 46.382812 -12.0625 47.5 -12.15625 C 48.613281 -12.25 49.734375 -12.203125 50.859375 -12.015625 C 52.347656 -11.640625 54.113281 -11.359375 56.15625 -11.171875 C 59.507812 -10.429688 61.5625 -10.429688 62.3125 -11.171875 C 63.800781 -12.296875 65.476562 -12.765625 67.34375 -12.578125 C 69.019531 -12.390625 70.414062 -11.550781 71.53125 -10.0625 C 72.644531 -8.570312 73.109375 -7.082031 72.921875 -5.59375 C 72.734375 -3.726562 71.894531 -2.238281 70.40625 -1.125 C 67.800781 0.925781 64.632812 2.140625 60.90625 2.515625 C 60.164062 2.515625 59.140625 2.421875 57.828125 2.234375 C 56.523438 2.046875 55.035156 1.765625 53.359375 1.390625 C 50.378906 0.835938 48.332031 0.65625 47.21875 0.84375 L 46.9375 1.125 C 46.382812 1.125 45.921875 1.210938 45.546875 1.390625 C 45.171875 1.765625 44.519531 2.046875 43.59375 2.234375 L 41.90625 3.078125 C 41.71875 3.265625 41.53125 3.359375 41.34375 3.359375 C 41.164062 3.359375 40.984375 3.445312 40.796875 3.625 C 39.671875 4 38.691406 4.375 37.859375 4.75 C 37.023438 5.125 36.234375 5.40625 35.484375 5.59375 C 34.734375 5.78125 34.125 5.914062 33.65625 6 C 33.195312 6.09375 32.78125 6.140625 32.40625 6.140625 C 31.289062 6.140625 30.453125 6.050781 29.890625 5.875 Z M 29.890625 5.875 "/></g></g></g><g fill="#5e253a" fill-opacity="1"><g transform="translate(87.507696, 588.219043)"><g><path d="M 54.484375 -12.578125 C 41.441406 -21.140625 31.566406 -33.0625 24.859375 -48.34375 C 17.972656 -63.425781 14.34375 -80.75 13.96875 -100.3125 C 13.78125 -117.257812 16.015625 -134.113281 20.671875 -150.875 C 25.515625 -167.832031 32.035156 -181.988281 40.234375 -193.34375 C 45.078125 -200.425781 49.546875 -205.457031 53.640625 -208.4375 C 60.160156 -213.84375 67.332031 -216.078125 75.15625 -215.140625 C 76.832031 -214.953125 78.226562 -214.113281 79.34375 -212.625 C 80.46875 -211.132812 80.9375 -209.550781 80.75 -207.875 C 80.75 -207.6875 80.65625 -207.59375 80.46875 -207.59375 C 81.957031 -207.40625 83.078125 -206.847656 83.828125 -205.921875 C 95.367188 -195.679688 104.03125 -177.519531 109.8125 -151.4375 C 115.207031 -127.59375 117.160156 -103.191406 115.671875 -78.234375 C 114.179688 -51.222656 109.0625 -31.476562 100.3125 -19 C 94.71875 -10.988281 88.007812 -6.425781 80.1875 -5.3125 C 72.363281 -4.1875 63.796875 -6.609375 54.484375 -12.578125 Z M 78.515625 -17.875 C 82.609375 -18.625 86.332031 -21.421875 89.6875 -26.265625 C 97.320312 -37.253906 101.789062 -54.765625 103.09375 -78.796875 C 104.59375 -102.640625 102.640625 -125.828125 97.234375 -148.359375 C 92.015625 -171.460938 84.65625 -187.484375 75.15625 -196.421875 C 73.289062 -198.097656 72.640625 -200.054688 73.203125 -202.296875 C 68.734375 -202.660156 64.820312 -201.351562 61.46875 -198.375 C 58.488281 -195.957031 54.859375 -191.769531 50.578125 -185.8125 C 42.929688 -175.1875 37.0625 -162.238281 32.96875 -146.96875 C 30.914062 -139.332031 29.332031 -131.601562 28.21875 -123.78125 C 27.101562 -115.957031 26.640625 -108.132812 26.828125 -100.3125 C 27.191406 -82.800781 30.265625 -67.523438 36.046875 -54.484375 C 41.816406 -41.441406 50.289062 -31.007812 61.46875 -23.1875 C 68.175781 -18.90625 73.859375 -17.132812 78.515625 -17.875 Z M 78.515625 -17.875 "/></g></g></g><g fill="#5e253a" fill-opacity="1"><g transform="translate(217.707411, 588.219043)"><g><path d="M 54.484375 -12.578125 C 41.441406 -21.140625 31.566406 -33.0625 24.859375 -48.34375 C 17.972656 -63.425781 14.34375 -80.75 13.96875 -100.3125 C 13.78125 -117.257812 16.015625 -134.113281 20.671875 -150.875 C 25.515625 -167.832031 32.035156 -181.988281 40.234375 -193.34375 C 45.078125 -200.425781 49.546875 -205.457031 53.640625 -208.4375 C 60.160156 -213.84375 67.332031 -216.078125 75.15625 -215.140625 C 76.832031 -214.953125 78.226562 -214.113281 79.34375 -212.625 C 80.46875 -211.132812 80.9375 -209.550781 80.75 -207.875 C 80.75 -207.6875 80.65625 -207.59375 80.46875 -207.59375 C 81.957031 -207.40625 83.078125 -206.847656 83.828125 -205.921875 C 95.367188 -195.679688 104.03125 -177.519531 109.8125 -151.4375 C 115.207031 -127.59375 117.160156 -103.191406 115.671875 -78.234375 C 114.179688 -51.222656 109.0625 -31.476562 100.3125 -19 C 94.71875 -10.988281 88.007812 -6.425781 80.1875 -5.3125 C 72.363281 -4.1875 63.796875 -6.609375 54.484375 -12.578125 Z M 78.515625 -17.875 C 82.609375 -18.625 86.332031 -21.421875 89.6875 -26.265625 C 97.320312 -37.253906 101.789062 -54.765625 103.09375 -78.796875 C 104.59375 -102.640625 102.640625 -125.828125 97.234375 -148.359375 C 92.015625 -171.460938 84.65625 -187.484375 75.15625 -196.421875 C 73.289062 -198.097656 72.640625 -200.054688 73.203125 -202.296875 C 68.734375 -202.660156 64.820312 -201.351562 61.46875 -198.375 C 58.488281 -195.957031 54.859375 -191.769531 50.578125 -185.8125 C 42.929688 -175.1875 37.0625 -162.238281 32.96875 -146.96875 C 30.914062 -139.332031 29.332031 -131.601562 28.21875 -123.78125 C 27.101562 -115.957031 26.640625 -108.132812 26.828125 -100.3125 C 27.191406 -82.800781 30.265625 -67.523438 36.046875 -54.484375 C 41.816406 -41.441406 50.289062 -31.007812 61.46875 -23.1875 C 68.175781 -18.90625 73.859375 -17.132812 78.515625 -17.875 Z M 78.515625 -17.875 "/></g></g></g><g fill="#5e253a" fill-opacity="1"><g transform="translate(347.907143, 588.219043)"><g><path d="M 78.234375 0.5625 C 73.765625 -1.675781 68.921875 -8.476562 63.703125 -19.84375 C 61.648438 -24.3125 59.550781 -29.335938 57.40625 -34.921875 C 55.269531 -40.515625 53.085938 -46.753906 50.859375 -53.640625 C 44.703125 -71.898438 40.226562 -87.640625 37.4375 -100.859375 C 35.945312 -98.816406 34.410156 -96.863281 32.828125 -95 C 31.242188 -93.132812 29.707031 -91.363281 28.21875 -89.6875 C 28.03125 -89.5 27.84375 -89.359375 27.65625 -89.265625 C 27.46875 -89.171875 27.285156 -89.03125 27.109375 -88.84375 C 26.921875 -83.632812 26.78125 -78.5625 26.6875 -73.625 C 26.59375 -68.6875 26.640625 -64.078125 26.828125 -59.796875 C 27.015625 -58.304688 27.195312 -56.300781 27.375 -53.78125 C 27.5625 -51.269531 27.84375 -48.335938 28.21875 -44.984375 C 28.40625 -43.679688 28.546875 -42.515625 28.640625 -41.484375 C 28.734375 -40.460938 28.78125 -39.582031 28.78125 -38.84375 C 29.894531 -29.894531 29.988281 -22.253906 29.0625 -15.921875 C 29.0625 -15.554688 28.96875 -15.09375 28.78125 -14.53125 C 28.59375 -13.96875 28.5 -13.5 28.5 -13.125 C 28.3125 -12.570312 28.21875 -11.828125 28.21875 -10.890625 C 28.21875 -10.710938 28.21875 -10.625 28.21875 -10.625 C 28.21875 -10.625 28.21875 -10.53125 28.21875 -10.34375 C 28.78125 -9.78125 29.242188 -8.660156 29.609375 -6.984375 C 29.796875 -5.304688 29.519531 -3.816406 28.78125 -2.515625 C 27.476562 -0.835938 25.988281 0.09375 24.3125 0.28125 C 21.519531 0.84375 19.191406 0.00390625 17.328125 -2.234375 C 16.203125 -3.722656 15.550781 -5.117188 15.375 -6.421875 C 15.1875 -8.097656 15.1875 -10.054688 15.375 -12.296875 C 15.550781 -12.671875 15.640625 -13.132812 15.640625 -13.6875 C 15.640625 -14.25 15.734375 -14.71875 15.921875 -15.09375 C 15.921875 -15.28125 15.921875 -15.460938 15.921875 -15.640625 C 15.921875 -15.828125 15.921875 -16.015625 15.921875 -16.203125 C 15.921875 -16.390625 15.921875 -16.578125 15.921875 -16.765625 C 15.921875 -16.953125 15.921875 -17.140625 15.921875 -17.328125 L 16.203125 -17.609375 C 17.140625 -22.628906 17.140625 -29.332031 16.203125 -37.71875 C 16.015625 -39.207031 15.738281 -41.164062 15.375 -43.59375 C 15 -47.125 14.71875 -50.191406 14.53125 -52.796875 C 14.34375 -55.410156 14.15625 -57.648438 13.96875 -59.515625 C 13.59375 -72.179688 14.148438 -89.875 15.640625 -112.59375 C 15.828125 -113.15625 15.921875 -114.460938 15.921875 -116.515625 C 16.671875 -125.078125 17.179688 -132.570312 17.453125 -139 C 17.734375 -145.425781 17.96875 -150.785156 18.15625 -155.078125 C 18.15625 -157.492188 18.109375 -160.191406 18.015625 -163.171875 C 17.921875 -166.148438 17.785156 -169.503906 17.609375 -173.234375 C 17.609375 -173.609375 17.609375 -174.023438 17.609375 -174.484375 C 17.609375 -174.953125 17.609375 -175.5625 17.609375 -176.3125 C 17.421875 -181.519531 17.28125 -186.03125 17.1875 -189.84375 C 17.09375 -193.664062 17.046875 -196.789062 17.046875 -199.21875 C 17.234375 -203.5 17.554688 -207.59375 18.015625 -211.5 C 18.484375 -215.414062 19.09375 -219.144531 19.84375 -222.6875 C 20.03125 -224.363281 20.957031 -225.664062 22.625 -226.59375 C 24.113281 -227.53125 25.789062 -227.8125 27.65625 -227.4375 C 29.332031 -227.25 30.640625 -226.316406 31.578125 -224.640625 C 32.503906 -223.335938 32.78125 -221.660156 32.40625 -219.609375 C 31.101562 -213.835938 30.265625 -206.945312 29.890625 -198.9375 C 29.890625 -196.519531 29.9375 -193.445312 30.03125 -189.71875 C 30.125 -185.988281 30.265625 -181.703125 30.453125 -176.859375 C 30.453125 -176.117188 30.453125 -175.515625 30.453125 -175.046875 C 30.453125 -174.578125 30.453125 -174.160156 30.453125 -173.796875 C 30.640625 -169.878906 30.78125 -166.382812 30.875 -163.3125 C 30.96875 -160.238281 30.921875 -157.492188 30.734375 -155.078125 C 30.734375 -150.597656 30.59375 -145.097656 30.3125 -138.578125 C 30.03125 -132.066406 29.519531 -124.429688 28.78125 -115.671875 C 28.78125 -113.441406 28.6875 -112.046875 28.5 -111.484375 C 28.5 -111.296875 28.5 -111.15625 28.5 -111.0625 C 28.5 -110.96875 28.5 -110.828125 28.5 -110.640625 C 29.800781 -112.691406 31.101562 -114.785156 32.40625 -116.921875 C 33.707031 -119.066406 35.015625 -121.351562 36.328125 -123.78125 C 38.179688 -127.132812 40.226562 -131.414062 42.46875 -136.625 C 44.707031 -141.84375 47.316406 -147.898438 50.296875 -154.796875 C 50.484375 -154.984375 50.578125 -155.164062 50.578125 -155.34375 L 50.859375 -155.90625 C 51.035156 -156.09375 51.125 -156.28125 51.125 -156.46875 C 51.125 -156.65625 51.21875 -156.84375 51.40625 -157.03125 C 58.300781 -173.414062 63.984375 -185.613281 68.453125 -193.625 C 72.179688 -200.144531 76.09375 -206.007812 80.1875 -211.21875 C 84.289062 -216.4375 88.671875 -220.910156 93.328125 -224.640625 C 94.816406 -225.753906 96.488281 -226.3125 98.34375 -226.3125 C 100.207031 -225.945312 101.609375 -225.203125 102.546875 -224.078125 C 103.660156 -222.585938 104.125 -221.003906 103.9375 -219.328125 C 103.5625 -217.285156 102.816406 -215.796875 101.703125 -214.859375 C 93.691406 -208.335938 86.332031 -199.117188 79.625 -187.203125 C 77.582031 -183.472656 75.160156 -178.675781 72.359375 -172.8125 C 69.566406 -166.945312 66.492188 -160.007812 63.140625 -152 C 63.140625 -152 62.957031 -151.625 62.59375 -150.875 L 62.59375 -150.59375 L 62.3125 -149.765625 C 59.332031 -142.679688 56.628906 -136.484375 54.203125 -131.171875 C 51.785156 -125.867188 49.644531 -121.445312 47.78125 -117.90625 C 47.59375 -117.71875 47.5 -117.53125 47.5 -117.34375 C 48.0625 -116.226562 48.34375 -115.113281 48.34375 -114 C 48.519531 -112.132812 48.984375 -109.335938 49.734375 -105.609375 C 50.484375 -101.890625 51.507812 -97.328125 52.8125 -91.921875 C 55.601562 -80.742188 58.953125 -69.289062 62.859375 -57.5625 C 65.097656 -51.039062 67.285156 -45.078125 69.421875 -39.671875 C 71.566406 -34.273438 73.570312 -29.429688 75.4375 -25.140625 C 77.300781 -20.859375 79.164062 -17.320312 81.03125 -14.53125 C 81.957031 -13.226562 82.703125 -12.203125 83.265625 -11.453125 L 83.828125 -10.890625 C 85.503906 -9.960938 86.617188 -8.753906 87.171875 -7.265625 C 87.734375 -5.398438 87.640625 -3.816406 86.890625 -2.515625 C 86.148438 -0.835938 84.847656 0.28125 82.984375 0.84375 C 81.117188 1.394531 79.535156 1.300781 78.234375 0.5625 Z M 78.234375 0.5625 "/></g></g></g><g fill="#5e253a" fill-opacity="1"><g transform="translate(465.813314, 588.219043)"><g/></g></g><g fill="#5e253a" fill-opacity="1"><g transform="translate(577.572771, 588.219043)"><g><path d="M 24.03125 -4.46875 C 18.8125 -9.6875 15.644531 -23.378906 14.53125 -45.546875 C 14.15625 -54.296875 13.96875 -64.257812 13.96875 -75.4375 C 13.96875 -86.613281 14.34375 -98.816406 15.09375 -112.046875 C 15.644531 -123.773438 16.335938 -135.273438 17.171875 -146.546875 C 18.015625 -157.816406 19.085938 -168.851562 20.390625 -179.65625 C 22.816406 -201.082031 25.054688 -214.867188 27.109375 -221.015625 C 27.660156 -222.867188 28.773438 -224.171875 30.453125 -224.921875 C 31.753906 -225.671875 33.335938 -225.765625 35.203125 -225.203125 C 36.691406 -224.640625 37.90625 -223.613281 38.84375 -222.125 C 39.582031 -220.632812 39.671875 -218.957031 39.109375 -217.09375 C 38.179688 -214.300781 37.203125 -209.550781 36.171875 -202.84375 C 35.148438 -196.144531 34.082031 -187.578125 32.96875 -177.140625 C 30.726562 -155.910156 29.050781 -134.023438 27.9375 -111.484375 C 27.195312 -98.441406 26.828125 -86.472656 26.828125 -75.578125 C 26.828125 -64.679688 27.007812 -54.859375 27.375 -46.109375 C 27.9375 -36.785156 28.773438 -29.144531 29.890625 -23.1875 C 30.453125 -20.769531 31.015625 -18.441406 31.578125 -16.203125 C 32.128906 -14.898438 32.59375 -14.0625 32.96875 -13.6875 C 34.269531 -12.382812 34.921875 -10.894531 34.921875 -9.21875 C 34.921875 -7.539062 34.363281 -5.957031 33.25 -4.46875 C 31.945312 -3.164062 30.363281 -2.515625 28.5 -2.515625 C 26.632812 -2.515625 25.144531 -3.164062 24.03125 -4.46875 Z M 24.03125 -4.46875 "/></g></g></g><g fill="#5e253a" fill-opacity="1"><g transform="translate(630.937917, 588.219043)"><g><path d="M 18.15625 1.671875 C 15.738281 -4.285156 14.34375 -18.535156 13.96875 -41.078125 C 13.78125 -50.941406 13.828125 -61.554688 14.109375 -72.921875 C 14.390625 -84.285156 14.8125 -96.300781 15.375 -108.96875 C 15.925781 -121.632812 16.617188 -133.320312 17.453125 -144.03125 C 18.296875 -154.738281 19.1875 -164.472656 20.125 -173.234375 C 21.238281 -182.921875 22.351562 -190.28125 23.46875 -195.3125 C 24.03125 -198.476562 24.679688 -200.804688 25.421875 -202.296875 C 26.910156 -205.828125 28.679688 -207.96875 30.734375 -208.71875 C 32.972656 -209.644531 35.019531 -209.457031 36.875 -208.15625 C 37.625 -207.96875 38.367188 -207.316406 39.109375 -206.203125 C 39.859375 -205.085938 40.328125 -204.15625 40.515625 -203.40625 C 40.890625 -202.664062 41.164062 -201.921875 41.34375 -201.171875 C 41.53125 -200.429688 41.71875 -199.59375 41.90625 -198.65625 C 42.09375 -197.914062 42.28125 -197.21875 42.46875 -196.5625 C 42.65625 -195.90625 42.84375 -195.207031 43.03125 -194.46875 C 43.21875 -194.28125 43.3125 -193.8125 43.3125 -193.0625 L 43.3125 -192.515625 C 43.675781 -191.578125 43.953125 -190.640625 44.140625 -189.703125 C 44.328125 -188.773438 44.515625 -187.847656 44.703125 -186.921875 C 44.703125 -186.179688 44.796875 -185.53125 44.984375 -184.96875 C 45.171875 -184.59375 45.265625 -184.21875 45.265625 -183.84375 C 45.265625 -183.476562 45.359375 -183.109375 45.546875 -182.734375 C 45.734375 -182.359375 45.828125 -181.9375 45.828125 -181.46875 C 45.828125 -181.007812 45.921875 -180.59375 46.109375 -180.21875 C 46.285156 -179.84375 46.375 -179.421875 46.375 -178.953125 C 46.375 -178.492188 46.46875 -178.078125 46.65625 -177.703125 C 47.03125 -176.585938 47.21875 -176.03125 47.21875 -176.03125 L 47.21875 -175.1875 C 48.144531 -170.53125 48.984375 -166.617188 49.734375 -163.453125 C 51.785156 -154.515625 53.460938 -146.691406 54.765625 -139.984375 C 57.179688 -129.546875 59.644531 -119.859375 62.15625 -110.921875 C 64.675781 -101.984375 67.148438 -93.695312 69.578125 -86.0625 C 72.179688 -78.050781 74.925781 -70.503906 77.8125 -63.421875 C 80.695312 -56.347656 83.722656 -49.550781 86.890625 -43.03125 C 86.890625 -43.21875 86.890625 -43.3125 86.890625 -43.3125 C 86.890625 -43.3125 86.890625 -43.40625 86.890625 -43.59375 C 87.078125 -45.445312 87.21875 -48.285156 87.3125 -52.109375 C 87.40625 -55.929688 87.453125 -60.820312 87.453125 -66.78125 C 87.453125 -70.320312 87.453125 -75.394531 87.453125 -82 C 87.453125 -88.613281 87.359375 -96.765625 87.171875 -106.453125 C 86.984375 -110.734375 86.890625 -114.597656 86.890625 -118.046875 C 86.890625 -121.492188 86.890625 -124.519531 86.890625 -127.125 C 86.703125 -140.351562 86.65625 -151.945312 86.75 -161.90625 C 86.84375 -171.875 86.984375 -180.117188 87.171875 -186.640625 C 87.359375 -190.921875 87.59375 -194.785156 87.875 -198.234375 C 88.15625 -201.679688 88.390625 -204.617188 88.578125 -207.046875 C 88.753906 -208.535156 88.984375 -209.835938 89.265625 -210.953125 C 89.546875 -212.066406 89.78125 -213.09375 89.96875 -214.03125 C 90.34375 -215.519531 90.71875 -216.539062 91.09375 -217.09375 C 91.832031 -218.769531 93.039062 -219.890625 94.71875 -220.453125 C 96.207031 -221.191406 97.882812 -221.285156 99.75 -220.734375 C 101.238281 -219.984375 102.445312 -218.863281 103.375 -217.375 C 104.5 -214.582031 104.128906 -212.253906 102.265625 -210.390625 C 102.078125 -209.273438 101.796875 -207.597656 101.421875 -205.359375 C 101.234375 -203.128906 101 -200.429688 100.71875 -197.265625 C 100.445312 -194.097656 100.21875 -190.367188 100.03125 -186.078125 C 99.84375 -179.566406 99.703125 -171.421875 99.609375 -161.640625 C 99.515625 -151.859375 99.5625 -140.445312 99.75 -127.40625 C 99.75 -124.800781 99.75 -121.726562 99.75 -118.1875 C 99.75 -114.644531 99.84375 -110.734375 100.03125 -106.453125 C 100.21875 -96.765625 100.3125 -88.613281 100.3125 -82 C 100.3125 -75.394531 100.3125 -70.414062 100.3125 -67.0625 C 100.3125 -60.726562 100.265625 -55.507812 100.171875 -51.40625 C 100.078125 -47.3125 99.9375 -44.238281 99.75 -42.1875 C 99.75 -42 99.75 -41.859375 99.75 -41.765625 C 99.75 -41.671875 99.75 -41.535156 99.75 -41.359375 C 99.5625 -40.609375 99.46875 -40.046875 99.46875 -39.671875 C 99.46875 -39.296875 99.46875 -39.019531 99.46875 -38.84375 C 99.28125 -38.09375 99.1875 -37.390625 99.1875 -36.734375 C 99.1875 -36.085938 99.1875 -35.578125 99.1875 -35.203125 C 99 -32.410156 98.441406 -30.175781 97.515625 -28.5 C 96.953125 -27.007812 96.207031 -25.796875 95.28125 -24.859375 C 93.601562 -23.191406 91.925781 -22.265625 90.25 -22.078125 L 89.96875 -22.078125 C 87.363281 -21.703125 85.128906 -22.351562 83.265625 -24.03125 C 82.890625 -24.40625 82.46875 -24.820312 82 -25.28125 C 81.539062 -25.75 81.125 -26.359375 80.75 -27.109375 C 80.1875 -27.660156 79.8125 -28.125 79.625 -28.5 C 79.625 -29.0625 79.53125 -29.429688 79.34375 -29.609375 C 75.25 -37.253906 71.335938 -45.453125 67.609375 -54.203125 C 63.890625 -62.960938 60.445312 -72.179688 57.28125 -81.859375 C 54.851562 -89.679688 52.382812 -98.203125 49.875 -107.421875 C 47.363281 -116.648438 44.894531 -126.476562 42.46875 -136.90625 C 41.726562 -140.445312 40.890625 -144.171875 39.953125 -148.078125 C 39.023438 -151.992188 38.09375 -156.1875 37.15625 -160.65625 C 36.414062 -163.820312 35.578125 -167.734375 34.640625 -172.390625 L 34.359375 -173.234375 C 34.359375 -173.421875 34.359375 -173.695312 34.359375 -174.0625 C 34.359375 -174.4375 34.269531 -174.8125 34.09375 -175.1875 C 33.90625 -175.5625 33.8125 -175.929688 33.8125 -176.296875 C 33.8125 -176.671875 33.71875 -176.953125 33.53125 -177.140625 C 33.34375 -176.398438 33.25 -175.5625 33.25 -174.625 C 33.25 -173.695312 33.15625 -172.765625 32.96875 -171.828125 C 32.039062 -163.265625 31.15625 -153.671875 30.3125 -143.046875 C 29.476562 -132.429688 28.78125 -120.882812 28.21875 -108.40625 C 27.65625 -95.738281 27.234375 -83.816406 26.953125 -72.640625 C 26.679688 -61.460938 26.640625 -50.941406 26.828125 -41.078125 C 27.015625 -20.210938 28.128906 -7.546875 30.171875 -3.078125 C 30.734375 -1.398438 30.734375 0.273438 30.171875 1.953125 C 29.242188 3.441406 28.035156 4.5625 26.546875 5.3125 C 24.867188 5.863281 23.191406 5.863281 21.515625 5.3125 C 19.835938 4.375 18.71875 3.160156 18.15625 1.671875 Z M 18.15625 1.671875 "/></g></g></g><g fill="#5e253a" fill-opacity="1"><g transform="translate(748.844088, 588.219043)"><g><path d="M 77.390625 -5.03125 C 70.503906 0.1875 62.125 2.703125 52.25 2.515625 C 42.375 2.140625 34.082031 -0.5625 27.375 -5.59375 C 19.375 -11.738281 15.375 -19.929688 15.375 -30.171875 C 15.375 -31.847656 16.023438 -33.335938 17.328125 -34.640625 C 18.816406 -35.765625 20.398438 -36.328125 22.078125 -36.328125 C 23.753906 -36.328125 25.242188 -35.765625 26.546875 -34.640625 C 27.660156 -33.335938 28.21875 -31.847656 28.21875 -30.171875 C 28.21875 -24.210938 30.546875 -19.460938 35.203125 -15.921875 C 39.671875 -12.566406 45.351562 -10.707031 52.25 -10.34375 C 59.144531 -10.15625 64.921875 -11.832031 69.578125 -15.375 C 74.597656 -19.09375 77.203125 -24.117188 77.390625 -30.453125 C 77.765625 -31.941406 77.765625 -33.429688 77.390625 -34.921875 C 76.648438 -55.785156 71.71875 -74.691406 62.59375 -91.640625 C 61.65625 -93.503906 60.394531 -95.644531 58.8125 -98.0625 C 57.226562 -100.488281 55.410156 -103.191406 53.359375 -106.171875 C 53.359375 -106.359375 51.59375 -109.0625 48.0625 -114.28125 C 46.195312 -116.882812 44.65625 -119.023438 43.4375 -120.703125 C 42.226562 -122.378906 41.441406 -123.585938 41.078125 -124.328125 C 37.535156 -129.734375 34.363281 -134.71875 31.5625 -139.28125 C 28.769531 -143.84375 26.351562 -147.988281 24.3125 -151.71875 C 16.675781 -166.613281 13.320312 -179.5625 14.25 -190.5625 C 15.738281 -205.082031 23.84375 -216.070312 38.5625 -223.53125 C 52.15625 -230.414062 63.984375 -229.578125 74.046875 -221.015625 C 81.304688 -214.492188 86.613281 -204.804688 89.96875 -191.953125 C 90.53125 -190.273438 90.34375 -188.691406 89.40625 -187.203125 C 88.476562 -185.523438 87.175781 -184.5 85.5 -184.125 C 83.820312 -183.570312 82.238281 -183.757812 80.75 -184.6875 C 79.070312 -185.613281 78.046875 -186.914062 77.671875 -188.59375 C 74.878906 -199.40625 70.875 -206.953125 65.65625 -211.234375 C 59.882812 -216.265625 52.804688 -216.632812 44.421875 -212.34375 C 33.804688 -206.945312 28.035156 -199.3125 27.109375 -189.4375 C 26.359375 -181.050781 29.242188 -170.429688 35.765625 -157.578125 C 39.492188 -150.316406 44.800781 -141.65625 51.6875 -131.59375 C 52.0625 -130.851562 52.851562 -129.644531 54.0625 -127.96875 C 55.269531 -126.289062 56.804688 -124.148438 58.671875 -121.546875 C 62.210938 -116.328125 63.984375 -113.625 63.984375 -113.4375 C 68.640625 -107.289062 71.992188 -102.078125 74.046875 -97.796875 C 78.890625 -88.660156 82.707031 -78.878906 85.5 -68.453125 C 88.289062 -58.023438 89.875 -47.035156 90.25 -35.484375 C 90.625 -33.429688 90.625 -31.566406 90.25 -29.890625 C 89.6875 -19.460938 85.398438 -11.175781 77.390625 -5.03125 Z M 77.390625 -5.03125 "/></g></g></g><g fill="#5e253a" fill-opacity="1"><g transform="translate(853.339151, 588.219043)"><g><path d="M 24.03125 -4.46875 C 18.8125 -9.6875 15.644531 -23.378906 14.53125 -45.546875 C 14.15625 -54.296875 13.96875 -64.257812 13.96875 -75.4375 C 13.96875 -86.613281 14.34375 -98.816406 15.09375 -112.046875 C 15.644531 -123.773438 16.335938 -135.273438 17.171875 -146.546875 C 18.015625 -157.816406 19.085938 -168.851562 20.390625 -179.65625 C 22.816406 -201.082031 25.054688 -214.867188 27.109375 -221.015625 C 27.660156 -222.867188 28.773438 -224.171875 30.453125 -224.921875 C 31.753906 -225.671875 33.335938 -225.765625 35.203125 -225.203125 C 36.691406 -224.640625 37.90625 -223.613281 38.84375 -222.125 C 39.582031 -220.632812 39.671875 -218.957031 39.109375 -217.09375 C 38.179688 -214.300781 37.203125 -209.550781 36.171875 -202.84375 C 35.148438 -196.144531 34.082031 -187.578125 32.96875 -177.140625 C 30.726562 -155.910156 29.050781 -134.023438 27.9375 -111.484375 C 27.195312 -98.441406 26.828125 -86.472656 26.828125 -75.578125 C 26.828125 -64.679688 27.007812 -54.859375 27.375 -46.109375 C 27.9375 -36.785156 28.773438 -29.144531 29.890625 -23.1875 C 30.453125 -20.769531 31.015625 -18.441406 31.578125 -16.203125 C 32.128906 -14.898438 32.59375 -14.0625 32.96875 -13.6875 C 34.269531 -12.382812 34.921875 -10.894531 34.921875 -9.21875 C 34.921875 -7.539062 34.363281 -5.957031 33.25 -4.46875 C 31.945312 -3.164062 30.363281 -2.515625 28.5 -2.515625 C 26.632812 -2.515625 25.144531 -3.164062 24.03125 -4.46875 Z M 24.03125 -4.46875 "/></g></g></g><g fill="#5e253a" fill-opacity="1"><g transform="translate(906.704297, 588.219043)"><g><path d="M 38.84375 1.125 C 36.789062 1.675781 34.832031 1.300781 32.96875 0 C 31.476562 0 30.175781 -0.554688 29.0625 -1.671875 C 27.9375 -2.609375 27.191406 -3.914062 26.828125 -5.59375 C 26.453125 -8.570312 25.796875 -12.484375 24.859375 -17.328125 C 23.929688 -22.171875 22.722656 -27.941406 21.234375 -34.640625 C 19.929688 -42.285156 18.8125 -48.15625 17.875 -52.25 C 16.570312 -59.144531 15.640625 -65.476562 15.078125 -71.25 C 14.523438 -77.019531 14.25 -82.328125 14.25 -87.171875 C 14.25 -94.992188 14.804688 -105.984375 15.921875 -120.140625 C 15.921875 -120.328125 15.921875 -120.515625 15.921875 -120.703125 C 15.921875 -120.890625 15.921875 -121.171875 15.921875 -121.546875 C 17.410156 -139.234375 17.972656 -152.550781 17.609375 -161.5 C 17.234375 -165.78125 16.671875 -171.832031 15.921875 -179.65625 C 15.734375 -182.257812 15.457031 -184.21875 15.09375 -185.53125 C 13.601562 -198.75 13.695312 -209.269531 15.375 -217.09375 C 15.925781 -219.519531 17.414062 -221.101562 19.84375 -221.84375 C 21.144531 -223.707031 23.003906 -224.546875 25.421875 -224.359375 C 47.585938 -221.941406 65.84375 -209.742188 80.1875 -187.765625 C 92.664062 -168.203125 99.929688 -144.820312 101.984375 -117.625 C 104.035156 -90.25 100.03125 -66.035156 89.96875 -44.984375 C 78.601562 -20.765625 61.5625 -5.394531 38.84375 1.125 Z M 38.84375 -12.296875 C 55.976562 -18.441406 69.203125 -31.203125 78.515625 -50.578125 C 87.453125 -69.941406 91.082031 -92.015625 89.40625 -116.796875 C 87.363281 -141.941406 80.753906 -163.175781 69.578125 -180.5 C 58.210938 -197.820312 44.144531 -207.972656 27.375 -210.953125 C 26.632812 -205.546875 26.820312 -197.535156 27.9375 -186.921875 C 28.3125 -185.617188 28.59375 -183.664062 28.78125 -181.0625 C 29.707031 -172.488281 30.265625 -166.0625 30.453125 -161.78125 C 30.828125 -152.46875 30.269531 -138.679688 28.78125 -120.421875 C 28.78125 -120.234375 28.78125 -120.046875 28.78125 -119.859375 C 28.78125 -119.671875 28.78125 -119.488281 28.78125 -119.3125 C 27.664062 -105.15625 27.109375 -94.441406 27.109375 -87.171875 C 27.109375 -78.234375 28.222656 -67.335938 30.453125 -54.484375 C 30.828125 -52.617188 31.289062 -50.195312 31.84375 -47.21875 C 32.40625 -44.238281 33.0625 -40.882812 33.8125 -37.15625 C 35.113281 -31.382812 36.179688 -26.398438 37.015625 -22.203125 C 37.859375 -18.015625 38.46875 -14.710938 38.84375 -12.296875 Z M 38.84375 -12.296875 "/></g></g></g><g fill="#5e253a" fill-opacity="1"><g transform="translate(1023.2135, 588.219043)"><g><path d="M 24.3125 9.5 C 21.695312 9.3125 19.273438 8.101562 17.046875 5.875 C 15.742188 4.5625 15 2.882812 14.8125 0.84375 C 14.625 0.09375 14.53125 -0.648438 14.53125 -1.390625 C 14.53125 -2.140625 14.4375 -2.976562 14.25 -3.90625 C 14.0625 -5.769531 13.96875 -7.863281 13.96875 -10.1875 C 13.96875 -12.519531 13.96875 -15.175781 13.96875 -18.15625 C 13.59375 -28.78125 13.59375 -42.660156 13.96875 -59.796875 C 14.15625 -78.421875 14.4375 -93.320312 14.8125 -104.5 C 15.1875 -115.675781 15.554688 -123.21875 15.921875 -127.125 C 16.109375 -128.0625 16.203125 -129.785156 16.203125 -132.296875 C 16.203125 -134.816406 16.296875 -138.21875 16.484375 -142.5 L 16.484375 -143.609375 C 16.671875 -144.171875 16.765625 -145.289062 16.765625 -146.96875 C 16.765625 -147.53125 16.765625 -148.179688 16.765625 -148.921875 C 16.765625 -149.671875 16.859375 -150.414062 17.046875 -151.15625 C 17.046875 -151.90625 17.046875 -152.695312 17.046875 -153.53125 C 17.046875 -154.375 17.140625 -155.257812 17.328125 -156.1875 C 17.328125 -157.113281 17.328125 -157.992188 17.328125 -158.828125 C 17.328125 -159.671875 17.328125 -160.46875 17.328125 -161.21875 C 17.328125 -162.144531 17.328125 -162.976562 17.328125 -163.71875 C 17.328125 -164.46875 17.421875 -165.21875 17.609375 -165.96875 C 17.609375 -166.707031 17.609375 -167.359375 17.609375 -167.921875 C 17.609375 -168.484375 17.609375 -168.945312 17.609375 -169.3125 C 18.160156 -181.976562 18.71875 -191.757812 19.28125 -198.65625 C 19.65625 -202.9375 19.9375 -206.289062 20.125 -208.71875 C 20.300781 -209.457031 20.390625 -210.15625 20.390625 -210.8125 C 20.390625 -211.46875 20.484375 -211.976562 20.671875 -212.34375 C 20.859375 -212.71875 20.953125 -213.09375 20.953125 -213.46875 C 20.953125 -213.84375 21.046875 -214.117188 21.234375 -214.296875 C 21.609375 -214.859375 21.976562 -215.375 22.34375 -215.84375 C 22.71875 -216.3125 23.09375 -216.726562 23.46875 -217.09375 C 24.769531 -218.394531 26.726562 -219.328125 29.34375 -219.890625 C 31.382812 -220.265625 33.617188 -220.546875 36.046875 -220.734375 C 37.910156 -220.921875 40.144531 -221.0625 42.75 -221.15625 C 45.351562 -221.25 48.425781 -221.296875 51.96875 -221.296875 C 52.71875 -221.296875 53.695312 -221.296875 54.90625 -221.296875 C 56.113281 -221.296875 57.648438 -221.296875 59.515625 -221.296875 C 63.054688 -221.296875 65.988281 -221.296875 68.3125 -221.296875 C 70.644531 -221.296875 72.273438 -221.382812 73.203125 -221.5625 C 74.878906 -221.75 76.460938 -221.285156 77.953125 -220.171875 C 79.066406 -219.054688 79.8125 -217.566406 80.1875 -215.703125 C 80.1875 -214.023438 79.628906 -212.441406 78.515625 -210.953125 C 77.578125 -209.835938 76.085938 -209.09375 74.046875 -208.71875 C 72.921875 -208.53125 71.148438 -208.4375 68.734375 -208.4375 C 66.316406 -208.4375 63.242188 -208.4375 59.515625 -208.4375 C 57.835938 -208.4375 56.390625 -208.4375 55.171875 -208.4375 C 53.960938 -208.4375 52.894531 -208.4375 51.96875 -208.4375 C 48.800781 -208.4375 45.957031 -208.390625 43.4375 -208.296875 C 40.925781 -208.203125 38.738281 -208.0625 36.875 -207.875 C 36.132812 -207.6875 35.4375 -207.59375 34.78125 -207.59375 C 34.132812 -207.59375 33.53125 -207.5 32.96875 -207.3125 L 32.96875 -207.046875 C 32.59375 -204.617188 32.3125 -201.453125 32.125 -197.546875 C 31.570312 -190.648438 31.015625 -181.054688 30.453125 -168.765625 C 30.453125 -168.015625 30.453125 -167.21875 30.453125 -166.375 C 30.453125 -165.539062 30.453125 -164.566406 30.453125 -163.453125 C 30.265625 -162.335938 30.171875 -161.21875 30.171875 -160.09375 C 30.171875 -158.976562 30.171875 -157.863281 30.171875 -156.75 C 29.984375 -155.445312 29.890625 -154.234375 29.890625 -153.109375 C 29.890625 -151.992188 29.890625 -150.878906 29.890625 -149.765625 C 29.703125 -148.640625 29.609375 -147.613281 29.609375 -146.6875 C 29.609375 -145.757812 29.519531 -144.921875 29.34375 -144.171875 L 29.34375 -141.9375 C 28.96875 -133 28.6875 -127.597656 28.5 -125.734375 C 28.3125 -123.304688 28.03125 -115.578125 27.65625 -102.546875 C 31.382812 -102.171875 37.441406 -102.171875 45.828125 -102.546875 C 48.429688 -102.734375 50.664062 -102.828125 52.53125 -102.828125 C 54.394531 -102.828125 55.976562 -102.828125 57.28125 -102.828125 C 58.957031 -102.828125 60.445312 -102.265625 61.75 -101.140625 C 62.863281 -99.835938 63.421875 -98.253906 63.421875 -96.390625 C 63.421875 -94.523438 62.863281 -93.035156 61.75 -91.921875 C 60.445312 -90.617188 58.957031 -89.96875 57.28125 -89.96875 C 55.976562 -89.96875 54.441406 -89.96875 52.671875 -89.96875 C 50.898438 -89.96875 48.710938 -89.875 46.109375 -89.6875 C 37.535156 -89.5 31.289062 -89.5 27.375 -89.6875 C 27.195312 -84.46875 27.0625 -79.34375 26.96875 -74.3125 C 26.875 -69.289062 26.828125 -64.359375 26.828125 -59.515625 C 26.640625 -42.566406 26.640625 -28.875 26.828125 -18.4375 C 26.828125 -15.457031 26.828125 -12.847656 26.828125 -10.609375 C 26.828125 -8.378906 26.921875 -6.519531 27.109375 -5.03125 C 27.285156 -4.46875 27.375 -3.910156 27.375 -3.359375 L 27.65625 -3.359375 C 31.382812 -4.097656 35.109375 -4.609375 38.828125 -4.890625 C 42.554688 -5.171875 46.285156 -5.40625 50.015625 -5.59375 C 51.316406 -5.59375 52.988281 -5.59375 55.03125 -5.59375 C 57.082031 -5.59375 59.507812 -5.59375 62.3125 -5.59375 C 64.175781 -5.59375 65.804688 -5.59375 67.203125 -5.59375 C 68.597656 -5.59375 69.757812 -5.59375 70.6875 -5.59375 C 72.363281 -5.59375 73.851562 -4.9375 75.15625 -3.625 C 76.457031 -2.320312 77.109375 -0.738281 77.109375 1.125 C 77.109375 2.789062 76.457031 4.28125 75.15625 5.59375 C 73.851562 6.707031 72.363281 7.265625 70.6875 7.265625 C 69.570312 7.265625 68.316406 7.265625 66.921875 7.265625 C 65.523438 7.265625 63.894531 7.265625 62.03125 7.265625 C 59.414062 7.265625 57.128906 7.265625 55.171875 7.265625 C 53.222656 7.265625 51.597656 7.265625 50.296875 7.265625 C 46.941406 7.453125 43.585938 7.679688 40.234375 7.953125 C 36.878906 8.234375 33.523438 8.65625 30.171875 9.21875 C 29.242188 9.40625 28.265625 9.546875 27.234375 9.640625 C 26.210938 9.734375 25.238281 9.6875 24.3125 9.5 Z M 24.3125 9.5 "/></g></g></g></g></g></g></g></g></svg>